<?xml version="1.0" encoding="UTF-8"?>
<svg xmlns="http://www.w3.org/2000/svg" version="1.1" viewBox="0 0 342 342">
  <defs>
    <style>
      .cls-1 {
        opacity: .6;
      }

      .cls-1, .cls-2 {
        mix-blend-mode: multiply;
      }

      .cls-3 {
        isolation: isolate;
      }

      .cls-4 {
        opacity: 0;
      }
    </style>
  </defs>
  <!-- Generator: Adobe Illustrator 28.7.1, SVG Export Plug-In . SVG Version: 1.2.0 Build 142)  -->
  <g class="cls-3">
    <g id="katman_1">
      <g class="cls-4">
        <g>
          <polygon points="265.5 92.3 244.9 127.8 244.9 25.2 265.5 92.3"/>
          <polygon points="244.9 127.8 333.8 76.5 265.5 92.3 244.9 127.8"/>
          <polygon points="244.9 127.8 286 127.8 333.8 76.5 244.9 127.8"/>
          <polygon points="244.9 127.8 333.8 179.2 286 127.8 244.9 127.8"/>
          <polygon points="244.9 127.8 265.5 163.4 333.8 179.2 244.9 127.8"/>
          <polygon points="244.9 230.5 244.9 127.8 265.5 163.4 244.9 230.5"/>
          <polygon points="224.4 163.4 244.9 127.8 244.9 230.5 224.4 163.4"/>
          <polygon points="156 179.2 244.9 127.8 224.4 163.4 156 179.2"/>
          <polygon points="203.9 127.8 244.9 127.8 156 179.2 203.9 127.8"/>
          <polygon points="156 76.5 244.9 127.8 203.9 127.8 156 76.5"/>
          <polygon points="224.4 92.3 244.9 127.8 156 76.5 224.4 92.3"/>
          <polygon points="224.4 92.3 244.9 25.2 244.9 127.8 224.4 92.3"/>
          <polygon class="cls-2" points="333.8 76.5 265.5 92.3 244.9 25.2 224.4 92.3 156 76.5 203.9 127.8 156 179.2 224.4 163.4 244.9 230.5 265.5 163.4 333.8 179.2 286 127.8 333.8 76.5"/>
        </g>
        <g>
          <g>
            <path d="M165.6,324.7c-85.1,0-154.3-69.2-154.3-154.3S80.5,16.1,165.6,16.1s22.6,1.2,33.6,3.7c-60.4,7.1-107.5,58.6-107.5,120.9s54.6,121.7,121.7,121.7,80.1-21.4,102.3-55.8c-16.4,68.4-78.2,118.2-150.1,118.2Z"/>
            <path d="M213.4,262.3c-67.1,0-121.7-54.6-121.7-121.7S138.7,26.8,199.2,19.8c0,0,0,0,0,0-3.3-.2-6.6-.4-9.9-.4-75.3,0-136.5,61.2-136.5,136.5s61.2,136.5,136.5,136.5,105-34.1,125.8-83.5c.2-.8.4-1.5.6-2.3-22.2,34.4-60.7,55.8-102.3,55.8Z"/>
          </g>
          <path class="cls-1" d="M315.6,206.6s0,0,0,0c0,0,0,0,0,0-22.2,34.4-60.7,55.8-102.3,55.8s-24.7-1.9-36.1-5.5c-49.5-15.4-85.6-61.7-85.6-116.2S138.7,26.8,199.2,19.8c0,0,0,0,0,0-11-2.4-22.2-3.7-33.6-3.7C80.5,16.1,11.2,85.3,11.2,170.4s69.2,154.3,154.3,154.3,132.2-48.6,149.5-115.9c0,0,0,0,0,0,.2-.8.4-1.5.6-2.3Z"/>
        </g>
      </g>
    </g>
  </g>
</svg>