<?xml version="1.0" encoding="UTF-8"?>
<svg xmlns="http://www.w3.org/2000/svg" xmlns:xlink="http://www.w3.org/1999/xlink" version="1.1" viewBox="0 0 154 40">
  <defs>
    <style>
      .cls-1 {
        fill: none;
      }

      .cls-2 {
        fill: #63ab45;
      }

      .cls-3 {
        fill: #fff;
      }

      .cls-4 {
        fill: #a88c57;
      }

      .cls-5 {
        clip-path: url(#clippath);
      }
    </style>
    <clipPath id="clippath">
      <rect class="cls-1" y="-115.3" width="154" height="40"/>
    </clipPath>
  </defs>
  <!-- Generator: Adobe Illustrator 28.7.1, SVG Export Plug-In . SVG Version: 1.2.0 Build 142)  -->
  <g>
    <g id="katman_1">
      <g class="cls-5">
        <g>
          <path class="cls-2" d="M30.5-99l.5-.2.2-.7.2-.7,1.4-.6c.9-.4,1.4-.6,1.4-.5,0,0,.5,4.4.5,4.7,0,0,.1,0,.6-.2l.6-.3.4-2.7.4-2.7,1.6-.7c1.7-.8,1.7-.8,1.9-1.2,0-.3,0-.4,0-.7-.1-.3-.4-.5-.8-.6q-.3,0-1.8.6l-1.6.7-2.3-1.6-2.3-1.6-.6.2c-.5.2-.6.3-.5.3,0,0,.7.9,1.5,1.8.8,1,1.5,1.8,1.5,1.8,0,0-.3.2-1.4.6l-1.4.6-.6-.4-.6-.4-.5.2c-.4.2-.5.2-.4.3,0,0,.4.4.7.9l.6.8v1c.2.5.2,1,.2,1.1,0,0,.1,0,.5-.1Z"/>
          <path class="cls-2" d="M29-100l-1,.6c-3.9,2.1-6.7,4.1-8,5.6-.1.2-.3.3-.4.5-.2-.3-.5-.5-.8-.4-.3,0-.5.2-.6.5,1-1.6,3.7-3.7,7.7-6.1.7-.4,2.6-1.5,2.7-1.5,0,0,.1.2.2.5l.2.5Z"/>
          <path class="cls-2" d="M18.8-115.3c-1,.1-1.9.3-2.7.7-.7.3-1.3.8-1.8,1.3-.4.4-.8.9-1.1,1.5-.4.9-.6,1.8-.6,2.7s0,.6,0,.9c.2.9.5,1.7.9,2.5.5,1.2,1.1,2.3,1.8,3.5.8,1.4,1.6,2.8,2.5,4.2.3.4.6,1.3,1.2,1.2.6,0,.8-.6,1.1-1.1.7-1.1,1.4-2.2,2.1-3.3.8-1.4,1.6-2.7,2.3-4.1.4-.8.8-1.7,1-2.6,0-.3,0-.5,0-.8,0-1-.2-2.1-.7-3-.3-.6-.7-1-1.1-1.5-.5-.6-1.2-1-1.9-1.3-.7-.3-1.4-.6-2.2-.7-.3,0-.5,0-.8,0Z"/>
          <path class="cls-2" d="M6.3-108.8c-.5,0-1,0-1.5.2-1.5.4-2.8,1.3-3.7,2.5-.6.7-.9,1.6-1,2.5-.4,2.2.2,4.7,2,6.2.5.5,1.2.9,1.9,1.1,1.1.4,2.3.4,3.5.5,1.7.1,3.5.1,5.2,0,.9,0,1.8,0,2.7,0,.3,0,.6,0,.9,0,.5-.1.8-.6.6-1.1-.1-.3-.4-.6-.5-1-.4-.8-.8-1.5-1.2-2.3-1-1.8-2-3.6-3.2-5.2-.7-.9-1.3-1.9-2.3-2.4-.8-.5-1.7-.9-2.7-1-.2,0-.5,0-.7,0Z"/>
          <path class="cls-2" d="M10.1-94.8c-.3,0-.6,0-.9,0-.4,0-.8,0-1.2,0-.7,0-1.5,0-2.2.2-.6,0-1.2.2-1.8.4-.7.2-1.3.6-1.8,1.1-.4.3-.8.7-1.1,1.1-1,1.5-1.4,3.4-1,5.1.1.7.3,1.4.7,2,.3.4.6.8,1,1.2,1.4,1.4,3.4,2.2,5.4,2,1.1-.1,2.2-.6,3-1.2.9-.7,1.7-1.8,2.3-2.8,1-1.5,2-3.1,2.9-4.7.5-.8.9-1.7,1.4-2.5.2-.4.5-.8.2-1.3-.3-.5-1.2-.4-1.8-.4s-1.5,0-2.3,0c-.3,0-.7,0-1,0-.4,0-.8,0-1.2,0-.2,0-.4,0-.6,0Z"/>
          <path class="cls-2" d="M37.5-85.8c-1.2,3.3-5.5,5-8.7,3.4-.8-.4-1.4-.9-2-1.6-.1-.2-.4-.4-.5-.6-.1,0-.2-.2-.3-.3-.2-.3-.4-.5-.6-.8-.6-1-1.2-1.9-1.8-2.9-.2-.4-.5-.8-.7-1.2-.2-.3-.3-.5-.4-.8-.4-.7-.8-1.4-1.1-2.1-.2-.5-.8-1-.5-1.6.3-.6,1-.5,1.5-.5.7,0,1.5,0,2.2,0,.8,0,1.7,0,2.5,0,1.5,0,3,0,4.5.2.7,0,1.5.2,2.2.4.4.1.8.4,1.1.6.6.4,1.1.8,1.5,1.3.5.5.8,1.2,1,1.8l.2.5h0c0,0,0,0,0,0,.3,1.4.3,2.8-.2,4.1Z"/>
          <path class="cls-2" d="M25.5-81.9c0,.9-.1,1.8-.5,2.7-.2.5-.5,1-.9,1.4-.4.5-1,1-1.6,1.4-.7.5-1.6.8-2.4,1-2.5.6-5.4-.9-6.7-3-.7-1.1-.9-2.5-.8-3.8,0-.9.5-1.9.9-2.7.7-1.6,1.5-3.1,2.4-4.6.6-1.1,1.2-2.1,1.9-3.2.1-.2.2-.4.4-.7,0,0,0,0,0,0,.2-.2.4-.4.6-.5.4,0,.6.1.8.4.2.2.3.5.4.7.5.7.9,1.4,1.3,2,.2.3.3.6.5.8.2.4.5.7.7,1.1.7,1.2,1.4,2.4,2,3.7.4.8.7,1.6.9,2.4,0,.3,0,.5,0,.8Z"/>
          <path class="cls-3" d="M138.1-87l6.1-7.3v1.4s-5.7-7-5.7-7h4.2l4,4.9h-1.3l4.1-4.9h4.2l-5.9,7.1-.2-1.8,6.4,7.6h-4.3l-4.4-5.2h1.4l-4.4,5.2h-4.2Z"/>
          <path class="cls-3" d="M130.5-86.7c-1.5,0-2.9-.3-4.1-.8-1.2-.6-2.1-1.4-2.8-2.4-.7-1-1-2.2-1-3.6s.3-2.5,1-3.5c.7-1,1.6-1.8,2.7-2.4,1.1-.6,2.5-.9,3.9-.9s2.8.3,3.9,1c1.1.7,1.9,1.6,2.5,2.8.6,1.2.9,2.6.9,4.2h-11.8v-2.5h9.8l-1.5.9c0-.8-.2-1.4-.6-1.9-.3-.5-.7-.9-1.2-1.2-.5-.3-1.1-.4-1.9-.4s-1.4.2-2,.5c-.6.3-1,.7-1.3,1.3-.3.5-.5,1.2-.5,1.9s.2,1.7.6,2.3c.4.6,1,1.1,1.7,1.5.8.3,1.7.5,2.7.5s1.9-.1,2.9-.4c1-.3,1.9-.7,2.7-1.2v2.5c-.8.6-1.8,1.1-3,1.4-1.1.3-2.3.5-3.6.5Z"/>
          <path class="cls-3" d="M107.3-96.5h6.6c.9,0,1.5-.2,2-.6.5-.4.8-1,.8-1.7s-.3-1.3-.8-1.7c-.5-.4-1.2-.6-2-.6h-7.1l1.7-2v16h-3.9v-17h9.7c1.2,0,2.3.2,3.3.7.9.4,1.7,1.1,2.2,1.8.5.8.8,1.7.8,2.8s-.3,2-.8,2.7c-.5.8-1.3,1.4-2.2,1.9-.9.4-2,.7-3.3.7h-7v-3ZM110.2-95h4.4l6.4,8h-4.5l-6.3-8Z"/>
          <path class="cls-3" d="M85.6-99.9h3.8v4.1l-.2.5v3.1l.2.9v8h-3.8v-16.7ZM88.1-93.5c.3-1.4.7-2.6,1.3-3.6.7-1,1.5-1.8,2.4-2.4,1-.6,2.1-.8,3.3-.8s2.4.3,3.3.9c1,.6,1.7,1.4,2.3,2.4.5,1,.8,2.2.8,3.6s-.3,2.5-.8,3.6c-.5,1-1.3,1.8-2.3,2.4-1,.6-2.1.8-3.3.8s-2.3-.3-3.3-.8c-1-.6-1.8-1.3-2.4-2.4-.7-1-1.1-2.2-1.4-3.6ZM97.7-93.5c0-.8-.2-1.4-.5-2-.3-.6-.7-1-1.3-1.4-.5-.3-1.2-.5-1.9-.5s-1.4.2-2,.5c-.6.3-1.2.8-1.7,1.4-.5.6-.8,1.2-1.1,2,.3.8.6,1.4,1.1,2,.5.6,1,1,1.7,1.4.6.3,1.3.5,2,.5s1.3-.2,1.9-.5c.5-.3,1-.8,1.3-1.4.3-.6.5-1.2.5-2Z"/>
          <path class="cls-3" d="M78.3-100.1l1.9.4,1.9-.4v13h-3.8v-13ZM80.2-101.4c-.7,0-1.2-.2-1.7-.5-.4-.4-.6-.8-.6-1.4s.2-1.1.6-1.4c.4-.4,1-.5,1.7-.5s1.3.2,1.7.5c.4.3.6.8.6,1.4s-.2,1.1-.6,1.4c-.4.3-1,.5-1.7.5Z"/>
          <path class="cls-3" d="M65-99.9h3.8l.8,4.7v8.3h-3.8v-8.7l-.8-4.2ZM75.8-100.1v3.3c-.4,0-.8-.2-1.2-.2-.4,0-.8,0-1.1,0-.8,0-1.4.2-2,.5-.6.3-1.1.8-1.4,1.5-.3.7-.5,1.5-.5,2.5l-.8-1c0-.9.3-1.8.5-2.6.2-.8.6-1.5,1-2.1.4-.6,1-1.1,1.6-1.5.6-.4,1.4-.5,2.3-.5s.6,0,.9,0c.3,0,.6,0,.8.1Z"/>
          <path class="cls-3" d="M54.4-102.3h3.8v15.3h-3.8v-15.3ZM47.6-104.1h17.4v3.4h-17.4v-3.4Z"/>
        </g>
      </g>
      <path class="cls-3" d="M2.1,27.9c.6,0,1-.1,1.3-.3.5-.2.7-.7.7-1.3v-11.5c0-.6-.2-1-.7-1.3-.3-.1-.7-.2-1.3-.3v-.6h7.2c2.9,0,5.1.8,6.6,2.3,1.4,1.4,2.1,3.3,2.1,5.6s-.7,3.9-2.1,5.4c-1.6,1.7-3.7,2.5-6.4,2.5H2.1v-.6h0ZM8.1,27.4c.2.2.5.3,1,.3,1.4,0,2.5-.5,3.4-1.5s1.3-2.9,1.3-5.6-.2-3.1-.7-4.3c-.8-1.9-2.1-2.9-3.9-2.9s-1,.1-1.2.4c0,.2-.2.5-.2,1v11.5c0,.5,0,.8.3,1h0Z"/>
      <path class="cls-3" d="M33.6,14.6c1.6,1.6,2.4,3.6,2.4,6s-.8,4.5-2.4,6c-1.6,1.5-3.5,2.3-5.9,2.3s-4.5-.8-6.1-2.5c-1.5-1.6-2.2-3.5-2.2-5.7s.8-4.5,2.3-6,3.6-2.4,6-2.4,4.3.8,5.9,2.3ZM31.4,25.1c.4-1.1.5-2.6.5-4.4s-.4-4.4-1.1-5.6c-.7-1.3-1.8-1.9-3-1.9s-3,1.1-3.6,3.2c-.3,1.1-.5,2.6-.5,4.4s.2,3.3.5,4.4c.6,2.1,1.9,3.1,3.6,3.1s3-1,3.6-3.1h0Z"/>
      <path class="cls-3" d="M37.3,27.9c.8,0,1.3-.2,1.6-.4s.4-.8.4-1.7v-10.4c0-.9-.2-1.5-.5-1.8-.2-.2-.7-.3-1.5-.4v-.6h7.5c1.6,0,2.8.2,3.8.5,1.9.7,2.8,1.9,2.8,3.6s-.5,2.3-1.5,3c-.8.5-1.5.9-2.4,1.1l5,6.7c0,.2.3.3.4.4s.3,0,.5.1v.6h-4.9l-5.5-7.3h0v4.6c0,.8,0,1.4.4,1.7s.8.4,1.6.5v.6h-7.9v-.6l.2-.2ZM46.4,19.8c.7-.4,1-1.3,1-2.8s0-1.6-.4-2.1c-.4-.9-1.2-1.3-2.4-1.3s-1,0-1.2.2-.3.4-.3.8v6c1.5,0,2.6-.2,3.3-.6v-.2Z"/>
      <path class="cls-3" d="M54.2,27.9c.6,0,1-.3,1.4-.8.2-.3.5-1,.9-2l5.2-12.8h.7l5.2,12.3c.6,1.4,1,2.3,1.3,2.7s.7.6,1.2.6v.6h-7.6v-.6c.8,0,1.3,0,1.5-.2s.4-.4.4-.8,0-.5-.2-.8c0-.2-.2-.5-.3-.8l-.6-1.4h-5.3c-.3.9-.6,1.5-.7,1.8-.2.6-.3,1-.3,1.3s.2.6.7.7c.3,0,.7.1,1.2.1v.6h-4.8v-.6h0ZM63,23l-2.3-5.4h-.2l-2.1,5.4h4.6Z"/>
      <path class="cls-3" d="M1.9,10.7h.4c0,0,.2-.2.2-.4v-3.2c0-.2,0-.3-.2-.3h-.4v-.2h2c.8,0,1.4.2,1.8.6.4.4.6.9.6,1.6s-.2,1.1-.6,1.5c-.4.5-1,.7-1.8.7h-2v-.2h0ZM3.5,10.5h.3c.4,0,.7-.1.9-.4.2-.3.4-.8.4-1.6s0-.9-.2-1.2c-.2-.5-.6-.8-1.1-.8s-.3,0-.3,0v3.8h0Z"/>
      <path class="cls-3" d="M6.6,10.8v-.2h.4c0,0,.2-.2.2-.4v-3.1c0-.2,0-.3-.2-.4h-.4v-.2h3.7v1.3h-.2c0-.4-.2-.7-.4-.9s-.6-.2-1.1-.2-.3,0-.4,0v1.7c.4,0,.6,0,.8-.2s.2-.4.3-.8h.2v2.2h-.2c0-.4-.1-.6-.3-.8s-.4-.2-.8-.2v1.6c0,.1,0,.2,0,.3h.4c.4,0,.8,0,1-.2.3-.2.5-.5.7-.9h.2l-.3,1.4h-3.8.1Z"/>
      <path class="cls-3" d="M10.9,10.7c.2,0,.4,0,.5-.1,0,0,.1-.2.1-.5v-2.9c0-.3,0-.4-.1-.5,0,0-.2,0-.4,0v-.2h2.1c.4,0,.8,0,1.1,0,.5.2.8.5.8,1s-.1.6-.4.8c-.2.2-.4.2-.7.3l1.4,1.8h.2v.2h-1.4l-1.5-2h0v1.3c0,.2,0,.4.1.5s.2.1.5.1v.2h-2.2v-.2.2ZM13.4,8.4c.2-.1.3-.4.3-.8s0-.5-.1-.6c-.1-.2-.3-.4-.7-.4s-.3,0-.3,0v1.9c.4,0,.7,0,.9-.2h0Z"/>
      <path class="cls-3" d="M15.6,10.7h.4c.1,0,.2-.2.2-.4v-3.2c0-.2,0-.3-.2-.3h-.4v-.2h2c.8,0,1.4.2,1.8.6s.6.9.6,1.6-.2,1.1-.6,1.5c-.4.5-1,.7-1.8.7h-2.1v-.2h.1ZM17.3,10.5h.3c.4,0,.7-.1.9-.4.2-.3.4-.8.4-1.6s0-.9-.2-1.2c-.2-.5-.6-.8-1.1-.8s-.3,0-.3,0v3.8h0Z"/>
      <path class="cls-3" d="M20.3,10.7c.2,0,.3,0,.4-.2,0,0,.1-.3.3-.5l1.4-3.6h.2l1.4,3.4c.2.4.3.6.4.7s.2.2.3.2v.2h-2.1v-.2h.4v-.6l-.2-.4h-1.5c0,.3-.2.4-.2.5v.4c0,0,0,.2.2.2h.3v.2h-1.3v-.2h0ZM22.7,9.3l-.6-1.5h0l-.6,1.5h1.3,0Z"/>
      <path class="cls-4" d="M74.6,12.7h14.1v4.7h-.7c-.2-1.7-.9-2.8-1.9-3.4-.6-.3-1.5-.5-2.6-.5v12.3c0,.9.2,1.4.5,1.7.3.3.9.4,1.9.4v.6h-8.3v-.6c.9,0,1.5-.1,1.8-.4s.5-.9.5-1.7v-12.3c-1.1,0-2,.2-2.6.5-1.1.6-1.8,1.8-1.9,3.4h-.7v-4.7h-.1Z"/>
      <path class="cls-4" d="M104.1,14.6c1.6,1.6,2.4,3.6,2.4,6s-.8,4.5-2.4,6-3.5,2.3-5.9,2.3-4.5-.8-6.1-2.5c-1.5-1.6-2.2-3.5-2.2-5.7s.8-4.5,2.3-6c1.6-1.6,3.6-2.4,6-2.4s4.3.8,5.9,2.3ZM101.9,25.1c.4-1.1.5-2.6.5-4.4s-.4-4.4-1.1-5.6c-.7-1.3-1.8-1.9-3-1.9s-3,1.1-3.6,3.2c-.3,1.1-.5,2.6-.5,4.4s.2,3.3.5,4.4c.7,2.1,1.9,3.1,3.6,3.1s3-1,3.6-3.1h0Z"/>
      <path class="cls-4" d="M115.7,12.7v.6c-.9,0-1.5.2-1.8.4s-.5.8-.5,1.7v7.8c0,1.2,0,2.1.4,2.8.5,1.2,1.5,1.8,2.9,1.8s3-.7,3.6-2c.4-.7.5-1.8.5-3.1v-7.2c0-.8-.2-1.4-.5-1.7s-.9-.5-1.8-.6v-.6h5.1v.6c-.7.1-1.2.3-1.5.5s-.4.7-.4,1.4v7.5c0,2-.5,3.5-1.4,4.6s-2.5,1.6-4.5,1.6-4.5-.8-5.5-2.4c-.5-.9-.8-2-.8-3.3v-7.8c0-.9,0-1.4-.3-1.7-.2-.2-.8-.4-1.6-.5v-.6h7.9l.2.2Z"/>
      <path class="cls-4" d="M124.6,27.9c.8,0,1.3-.2,1.6-.4s.4-.8.4-1.7v-10.4c0-.9-.2-1.5-.5-1.8-.2-.2-.7-.3-1.5-.4v-.6h7.5c1.6,0,2.8.2,3.8.5,1.9.7,2.8,1.9,2.8,3.6s-.5,2.3-1.5,3c-.8.5-1.5.9-2.4,1.1l5,6.7c.1.2.3.3.4.4s.3,0,.5.1v.6h-4.9l-5.5-7.3h0v4.6c0,.8.1,1.4.4,1.7s.8.4,1.6.5v.6h-7.9v-.6l.2-.2ZM133.8,19.8c.7-.4,1-1.3,1-2.8s-.1-1.6-.4-2.1c-.4-.9-1.2-1.3-2.4-1.3s-1,0-1.2.2-.3.4-.3.8v6c1.5,0,2.6-.2,3.3-.6v-.2Z"/>
      <path class="cls-4" d="M142,23h.7c.4,1.7,1,3,1.8,3.8s1.8,1.2,2.9,1.2,1.8-.3,2.2-.8.7-1.1.7-1.7-.2-1.3-.7-1.7c-.3-.3-.9-.7-1.8-1.1l-1.5-.8c-1.5-.7-2.5-1.5-3.1-2.2s-.9-1.6-.9-2.7.4-2.2,1.2-3.2,2-1.5,3.7-1.5,1.7.1,2.5.4,1.2.4,1.4.4c.3,0,.4,0,.5-.2s.2-.3.2-.6h.7v5.1h-.7c-.3-1.2-.8-2.2-1.6-3.1-.8-.9-1.7-1.3-2.8-1.3s-1.4.2-1.8.6c-.5.4-.7,1-.7,1.6s.2,1.3.6,1.7c.4.4,1.3.9,2.8,1.6l1.7.9c.8.4,1.4.8,1.8,1.3.9.9,1.3,2,1.3,3.2s-.5,2.3-1.4,3.3-2.4,1.6-4.4,1.6-.9,0-1.4-.1c-.5,0-.9-.2-1.4-.4l-.4-.2h-.5c-.2,0-.4,0-.5.2s-.2.3-.2.6h-.7v-5.8h-.2Z"/>
      <rect class="cls-3" x="72.2" y="31.6" width="80.9" height="2"/>
      <rect class="cls-4" x="2.1" y="31.6" width="70.1" height="2"/>
    </g>
  </g>
</svg>