<?xml version="1.0" encoding="UTF-8"?>
<svg xmlns="http://www.w3.org/2000/svg" version="1.1" viewBox="0 0 154 40">
  <defs>
    <style>
      .cls-1 {
        fill: #2d1028;
      }

      .cls-2 {
        fill: #9b8b7c;
      }

      .cls-3 {
        fill: #a58a59;
      }

      .cls-4, .cls-5 {
        fill: #a88c57;
      }

      .cls-4, .cls-6, .cls-7 {
        font-family: Times-Bold, Times;
        font-weight: 700;
        isolation: isolate;
      }

      .cls-4, .cls-7 {
        font-size: 12px;
      }

      .cls-8 {
        fill: #63ab45;
      }

      .cls-9 {
        fill: #937b62;
      }

      .cls-10 {
        fill: #a1895c;
      }

      .cls-11 {
        fill: #a48a58;
      }

      .cls-12 {
        fill: #040203;
      }

      .cls-6 {
        font-size: 3.3px;
      }

      .cls-13 {
        fill: #100c08;
      }

      .cls-14 {
        fill: #220729;
      }

      .cls-15 {
        fill: #a68b58;
      }
    </style>
  </defs>
  <!-- Generator: Adobe Illustrator 28.7.1, SVG Export Plug-In . SVG Version: 1.2.0 Build 142)  -->
  <g>
    <g id="katman_1">
      <path class="cls-8" d="M30.5,218.6l.5-.2.2-.7.2-.7,1.4-.6c.9-.4,1.4-.6,1.4-.5,0,0,.5,4.4.5,4.7,0,0,0,0,.6-.2l.6-.3.4-2.7.4-2.7,1.6-.7q1.7-.8,1.9-1.2v-.7c0-.3-.4-.5-.8-.6-.2,0-.8.2-1.8.6l-1.6.7-2.3-1.6-2.3-1.6-.6.2c-.5.2-.6.3-.5.3,0,0,.7.9,1.5,1.8.8,1,1.5,1.8,1.5,1.8,0,0-.3.2-1.4.6l-1.4.6-.6-.4-.6-.4-.5.2c-.4.2-.5.2-.4.3,0,0,.4.4.7.9l.6.8v1c.2.5.2,1,.2,1.1,0,0,.1,0,.5-.1v.3Z"/>
      <path class="cls-8" d="M29,217.6l-1,.6c-3.9,2.1-6.7,4.1-8,5.6-.1.2-.3.3-.4.5-.2-.3-.5-.5-.8-.4-.3,0-.5.2-.6.5,1-1.6,3.7-3.7,7.7-6.1.7-.4,2.6-1.5,2.7-1.5,0,0,.1.2.2.5l.2.5v-.2Z"/>
      <path class="cls-8" d="M18.8,202.3c-1,.1-1.9.3-2.7.7-.7.3-1.3.8-1.8,1.3-.4.4-.8.9-1.1,1.5-.4.9-.6,1.8-.6,2.7v.9c.2.9.5,1.7.9,2.5.5,1.2,1.1,2.3,1.8,3.5.8,1.4,1.6,2.8,2.5,4.2.3.4.6,1.3,1.2,1.2.6,0,.8-.6,1.1-1.1.7-1.1,1.4-2.2,2.1-3.3.8-1.4,1.6-2.7,2.3-4.1.4-.8.8-1.7,1-2.6v-.8c0-1-.2-2.1-.7-3-.3-.6-.7-1-1.1-1.5-.5-.6-1.2-1-1.9-1.3-.7-.3-1.4-.6-2.2-.7h-.8,0Z"/>
      <path class="cls-8" d="M6.3,208.8c-.5,0-1,0-1.5.2-1.5.4-2.8,1.3-3.7,2.5-.6.7-.9,1.6-1,2.5-.4,2.2.2,4.7,2,6.2.5.5,1.2.9,1.9,1.1,1.1.4,2.3.4,3.5.5,1.7.1,3.5.1,5.2,0h3.6c.5-.1.8-.6.6-1.1-.1-.3-.4-.6-.5-1-.4-.8-.8-1.5-1.2-2.3-1-1.8-2-3.6-3.2-5.2-.7-.9-1.3-1.9-2.3-2.4-.8-.5-1.7-.9-2.7-1h-.7Z"/>
      <path class="cls-8" d="M10.1,222.8h-2.1c-.7,0-1.5,0-2.2.2-.6,0-1.2.2-1.8.4-.7.2-1.3.6-1.8,1.1-.4.3-.8.7-1.1,1.1-1,1.5-1.4,3.4-1,5.1,0,.7.3,1.4.7,2,.3.4.6.8,1,1.2,1.4,1.4,3.4,2.2,5.4,2,1.1-.1,2.2-.6,3-1.2.9-.7,1.7-1.8,2.3-2.8,1-1.5,2-3.1,2.9-4.7.5-.8.9-1.7,1.4-2.5.2-.4.5-.8.2-1.3s-1.2-.4-1.8-.4h-5.1v-.2Z"/>
      <path class="cls-8" d="M37.5,231.8c-1.2,3.3-5.5,5-8.7,3.4-.8-.4-1.4-.9-2-1.6-.1-.2-.4-.4-.5-.6-.1,0-.2-.2-.3-.3-.2-.3-.4-.5-.6-.8-.6-1-1.2-1.9-1.8-2.9-.2-.4-.5-.8-.7-1.2-.2-.3-.3-.5-.4-.8-.4-.7-.8-1.4-1.1-2.1-.2-.5-.8-1-.5-1.6s1-.5,1.5-.5h4.7c1.5,0,3,0,4.5.2.7,0,1.5.2,2.2.4.4.1.8.4,1.1.6.6.4,1.1.8,1.5,1.3.5.5.8,1.2,1,1.8l.2.5h0c.3,1.4.3,2.8-.2,4.1h.1Z"/>
      <path class="cls-8" d="M25.5,235.7c0,.9-.1,1.8-.5,2.7-.2.5-.5,1-.9,1.4-.4.5-1,1-1.6,1.4-.7.5-1.6.8-2.4,1-2.5.6-5.4-.9-6.7-3-.7-1.1-.9-2.5-.8-3.8,0-.9.5-1.9.9-2.7.7-1.6,1.5-3.1,2.4-4.6.6-1.1,1.2-2.1,1.9-3.2.1-.2.2-.4.4-.7h0c.2-.2.4-.4.6-.5.4,0,.6.1.8.4.2.2.3.5.4.7.5.7.9,1.4,1.3,2,.2.3.3.6.5.8.2.4.5.7.7,1.1.7,1.2,1.4,2.4,2,3.7.4.8.7,1.6.9,2.4v.8h.1Z"/>
      <path class="cls-13" d="M138.1,230.6l6.1-7.3v1.4l-5.7-7h4.2l4,4.9h-1.3l4.1-4.9h4.2l-5.9,7.1-.2-1.8,6.4,7.6h-4.3l-4.4-5.2h1.4l-4.4,5.2h-4.2Z"/>
      <path class="cls-13" d="M130.5,230.9c-1.5,0-2.9-.3-4.1-.8-1.2-.6-2.1-1.4-2.8-2.4-.7-1-1-2.2-1-3.6s.3-2.5,1-3.5,1.6-1.8,2.7-2.4c1.1-.6,2.5-.9,3.9-.9s2.8.3,3.9,1c1.1.7,1.9,1.6,2.5,2.8s.9,2.6.9,4.2h-11.8v-2.5h9.8l-1.5.9c0-.8-.2-1.4-.6-1.9-.3-.5-.7-.9-1.2-1.2s-1.1-.4-1.9-.4-1.4.2-2,.5c-.6.3-1,.7-1.3,1.3-.3.5-.5,1.2-.5,1.9s.2,1.7.6,2.3,1,1.1,1.7,1.5c.8.3,1.7.5,2.7.5s1.9-.1,2.9-.4c1-.3,1.9-.7,2.7-1.2v2.5c-.8.6-1.8,1.1-3,1.4-1.1.3-2.3.5-3.6.5h0Z"/>
      <path class="cls-13" d="M107.3,221.1h6.6c.9,0,1.5-.2,2-.6.5-.4.8-1,.8-1.7s-.3-1.3-.8-1.7-1.2-.6-2-.6h-7.1l1.7-2v16h-3.9v-17h9.7c1.2,0,2.3.2,3.3.7.9.4,1.7,1.1,2.2,1.8.5.8.8,1.7.8,2.8s-.3,2-.8,2.7c-.5.8-1.3,1.4-2.2,1.9-.9.4-2,.7-3.3.7h-7v-3h0ZM110.2,222.6h4.4l6.4,8h-4.5l-6.3-8Z"/>
      <path class="cls-13" d="M85.6,217.7h3.8v4.1l-.2.5v3.1l.2.9v8h-3.8v-16.7h0ZM88.1,224.2c.3-1.4.7-2.6,1.3-3.6.7-1,1.5-1.8,2.4-2.4,1-.6,2.1-.8,3.3-.8s2.4.3,3.3.9c1,.6,1.7,1.4,2.3,2.4.5,1,.8,2.2.8,3.6s-.3,2.5-.8,3.6c-.5,1-1.3,1.8-2.3,2.4-1,.6-2.1.8-3.3.8s-2.3-.3-3.3-.8c-1-.6-1.8-1.3-2.4-2.4-.7-1-1.1-2.2-1.4-3.6h0ZM97.7,224.2c0-.8-.2-1.4-.5-2s-.7-1-1.3-1.4c-.5-.3-1.2-.5-1.9-.5s-1.4.2-2,.5-1.2.8-1.7,1.4c-.5.6-.8,1.2-1.1,2,.3.8.6,1.4,1.1,2s1,1,1.7,1.4c.6.3,1.3.5,2,.5s1.3-.2,1.9-.5c.5-.3,1-.8,1.3-1.4.3-.6.5-1.2.5-2Z"/>
      <path class="cls-13" d="M78.3,217.5l1.9.4,1.9-.4v13h-3.8v-13ZM80.2,216.2c-.7,0-1.2-.2-1.7-.5-.4-.4-.6-.8-.6-1.4s.2-1.1.6-1.4c.4-.4,1-.5,1.7-.5s1.3.2,1.7.5c.4.3.6.8.6,1.4s-.2,1.1-.6,1.4c-.4.3-1,.5-1.7.5Z"/>
      <path class="cls-13" d="M65,217.7h3.8l.8,4.7v8.3h-3.8v-8.7l-.8-4.2h0ZM75.8,217.5v3.3c-.4,0-.8-.2-1.2-.2h-1.1c-.8,0-1.4.2-2,.5s-1.1.8-1.4,1.5-.5,1.5-.5,2.5l-.8-1c0-.9.3-1.8.5-2.6s.6-1.5,1-2.1,1-1.1,1.6-1.5,1.4-.5,2.3-.5h.9c.3,0,.6,0,.8.1h-.1Z"/>
      <path class="cls-13" d="M54.4,215.3h3.8v15.3h-3.8v-15.3ZM47.6,213.6h17.4v3.4h-17.4v-3.4Z"/>
      <path d="M44.9-45.5v-6.2c0-1.5-.2-1.8-1.7-2.2-.3,0-.3-.2-.3-.4,0-.4.3-.3.5-.3h4.7c1.7,0,3.3,0,4.9.4,2.7.7,4.1,2.9,3.4,5.3-.4,1.5-1.6,2.2-2.9,2.7q-1,.3-.4,1.3c.9,1.4,1.7,2.8,2.6,4.1.5.7,1.1,1.4,1.9,1.8.5.3.8.2,1.1-.4,2.1-4.8,4.3-9.6,6.5-14.3.2-.4.3-.8.9-.8s.7.4.9.8c1.7,4.1,3.5,8.2,5.2,12.3.5,1.1,1,2.3,2.4,2.7.2,0,.3.2.3.4,0,.3-.3.3-.5.3-1.8.4-3.9-.5-4.9-2,0-.2-.3-.4-.3-.5-.4-1.8-1.6-2.1-3.2-2-1.3,0-2.5,0-3.8,0s-.7.2-.9.6c-.5,1.1-1,2.2-1.5,3.2,0,.2-.2.5-.5.5-.7,0-1.4,0-2.1.2-2,0-3.4-.8-4.4-2.3-1-1.4-1.9-2.9-2.8-4.3,0-.2-.3-.4-.4-.6-.2-.4-.5-.3-.9-.3s-.2.4-.2.6v6c0,.5,0,.8-.7.7h-1.9c-.7,0-.9,0-.9-.9v-6.4ZM48.3-50.3v1.4c0,1.2.6,1.8,1.8,1.7,1.5,0,2.7-.9,3-2.3.3-1.2,0-2.4-.9-3.3-1.1-.9-2.3-.9-3.6-.6-.4,0-.3.3-.3.5v2.5h0ZM62-44.1h5.7c-.9-2.1-1.8-4.2-2.8-6.4-1,2.2-1.9,4.2-2.9,6.4Z"/>
      <path class="cls-15" d="M127.6-38.7v-13.1c0-.9,0-1.8-1.1-2.3-.2-.2-.4-.4-.4-.7h.2c0,.2,0,.2.3.2h8c1.2,0,2.4.5,3.3,1.2,1.2,1,1.6,2.3,1.4,3.8-.3,1.8-1.5,2.7-3.1,3.1-.9.3-.8.5-.4,1.2.9,1.4,1.7,2.8,2.6,4.2.5.8,1.2,1.5,2.1,1.8.2,0,.4,0,.4.4s-.3.3-.5.4c-1.6.3-3,0-4.2-1.2-1.6-1.6-2.6-3.6-3.8-5.5-.3-.5-.7-1-1.4-.8-.3.2-.2.6-.2.9v5.6c0,.5-.2.8-.7.7h-2.5ZM131-53.1c-.3,1.3-.1,2.6-.1,3.8s-.2,1.3.1,1.9c.7.4,1.5.2,2.2,0,1.4,0,2.3-1,2.6-2.2.3-1.4-.1-2.8-1.1-3.5s-2.8-.8-3.7-.2h0Z"/>
      <path class="cls-3" d="M90.5-46.6c0-5,3.5-8.5,8.4-8.5s8.2,3.6,8.2,8.7-3.5,8.5-8.4,8.5-8.2-3.7-8.2-8.6h0ZM93.9-46.4c0,1.2,0,2.6.6,3.8.6,1.8,1.7,3.1,3.7,3.3,1.9.2,3.6-.4,4.4-2.2,1.6-3.4,1.6-6.8,0-10.2-.8-1.7-2.4-2.3-4.2-2.2-1.9,0-3.1,1.3-3.7,3-.6,1.4-.7,2.9-.7,4.5h-.1Z"/>
      <path d="M26-49.5c1.2-3.6,4.6-5.9,8.5-5.6,3.9.3,6.9,3,7.5,6.8.5,3.2-.2,6-2.6,8.3-3.9,3.6-11.9,2.5-13.6-4.1,0,0,0-.2-.1-.3.8-.7,2-.9,2.7-2.1-1.1.4-1.9,1.1-2.8,1.1-.1-1,0-2,.1-3,.4-.3.9-.6,1.3-.9.8-.3,1.4-.9,1.8-1.6.2,0,.2-.2.2-.4,0,0,.2,0,0,0h0c-.2,0-.2.3-.2.4-.7.4-1.3,1-2.1,1.3-.2,0-.4.4-.7,0h0ZM28.9-46.8c0,1.7.1,3.4.9,4.9.8,1.7,2,2.6,3.9,2.7,1.9,0,3.3-.9,4.1-2.6,1.3-3.1,1.3-6.3,0-9.4-.5-1.2-1.4-2.1-2.7-2.5-2.7-.8-5.1.7-5.8,3.7-.2,1-.3,1.9-.4,2.9v.2h0Z"/>
      <path class="cls-11" d="M153.3-51v1.2c0,.2,0,.5-.3.5s-.4-.2-.5-.4c-.2-.5-.3-1.1-.5-1.6-.9-2.1-3.2-3-5.4-2.3-.8.3-1.4.8-1.6,1.7-.2.9.1,1.6.8,2.2,1.3,1,2.7,1.6,4.1,2.5.9.6,1.8,1.1,2.6,1.7,2.3,1.8,1.8,5.6-1.1,6.8-2.5,1-5.1,1-7.6,0-1.2-.5-1.9-1.4-1.8-2.8v-1.5c0-.2-.1-.6.3-.6s.5.3.5.6c.1.7.3,1.3.7,1.9,1.1,2,4.4,2.8,6.3,1.5,1.1-.7,1.3-2.3.3-3.3-.9-1-2.1-1.5-3.2-2.2-1-.6-2.1-1.2-3.1-1.9-1.5-1.1-2.1-2.6-1.8-4.4.4-1.9,1.8-2.7,3.5-3.1,1.6-.4,3.2-.3,4.8.2,2.2.6,2.8,1.4,2.8,3.7l.2-.3Z"/>
      <path class="cls-15" d="M112-54.6c1.2.2,1.4.6,1.6,2.1v.2c0,2.9,0,5.9,0,8.8s0,.5.3.5c0,0,0,.2,0,.2.7,2.4,1.9,3.3,4.2,3.2,2.3-.2,3.7-1.5,4-3.9,0-.3,0-.6.2-1,.3-.3.2-.6.2-.9v-8.1c0-.8.2-1.2,1.1-1.1,0,3.7.3,7.3,0,11-.4,3.3-2.4,5.1-5.7,5.3-1.6,0-3.2,0-4.6-.9-2.1-1.2-2.7-3.2-2.8-5.4,0-2.4,0-4.8,0-7.2s-.2-1.7-1.1-2.2c0-.5.3-.5.7-.6.7,0,1.5,0,2.2,0h-.2Z"/>
      <path class="cls-5" d="M89.9-53.5h-4.5c-.3-.2-.6,0-.4.3,0,.2.2.4.2.7v13.2c0,.5-.2.7-.7.7h-2.5v-13.8c0-.9-.2-1.1-1.1-1h-1.2c-1.5,0-2.2.7-2.5,2.2,0,.2,0,.5-.4.5s-.4-.2-.4-.5v-1.9c0-.7.4-1.3,1.2-1.4h11.5q1.2,0,.6,1.1h.2Z"/>
      <path d="M7.4-44.4v-8.2c0-.8-.6-1.4-1.5-1.4s-.4,0-.4-.4,0-.4.4-.3c3.6,0,7.3-.4,10.9.6,3,.8,5.2,2.5,5.8,5.8-1,.7-2.2.7-3.3.8-.5-4-3.2-6.2-7.4-5.8-.6,0-.9.2-.9,1v6.8c-1.1.4-2.3.8-3.4,1.3l-.2-.2Z"/>
      <path class="cls-10" d="M19.2-47.7c1.1,0,2.3,0,3.3-.8,1.3,0,2.5-.3,3.6-1.1.3.3.5,0,.7,0,0,0,.2.2.3.4-.4.3-.9.6-1.3.9-.8.3-1.6.6-2.3.9-.7.3-1.6.2-2.1.8,0,.2,0,.4.3.4h0c-.2.4-.5.3-.7.3.2-.8,0-1-.8-.7-.5.2-1.1.3-1.7.4-.2,0-.4,0-.4.3-.2,0-.2.2-.2.4-.1,0-.2.2-.3.4,0-.2-.1-.3-.2-.5-.2-.4-.4-.3-.7,0-.3,0-.6.2-.9.2-.5,0-.9.2-1.3.3-.4,0-.6.4-1,.4-.6,0-.7.4-.6.9.1.3.2.7.3,1,0,.2.2.5.4.4.6-.4,1.3,0,1.9-.4h.4c.1.2.3.3.6,0h-.5c.2-.2.5,0,.7-.2.3,0,.8.3,1-.3.2,0,.2-.2.2-.4h.4c.3.6.5.6,1.1,0h.5c.4,0,1,.2,1.3-.3h.3c.8,0,1.6-.3,2.4-.6h.2c.5-.3,1.2-.2,1.7-.6,1,0,1.8-.7,2.8-1.1-.7,1.2-1.9,1.4-2.7,2.1-1.3.5-2.6.9-3.9,1.4-.8.2-1.6.3-2.3.6-.6.2-1.4.2-1.9.7,0,0-.1-.2-.3-.2-2.2.6-4.3,1.1-6.4,1.9-1.2.3-2.4.7-3.4,1.4-1.7.4-2.9,1.5-4.2,2.6,0,0-.3,0-.3.2h0c0,0-.2-.2-.2-.3,1-1.5,2.4-2.4,3.8-3.4.5-.2.9-.4,1.4-.6,1.1,0,1.7-.6,2.4-1.2.1,0,.3,0,.4-.2h.4c.1,0,.3,0,.3-.2h0c.5,0,1.4.2,1.1-.9-.5-2.2-.3-2-2.4-1.4,0,0-.2,0-.2,0h0c-.5,0-.3.5-.3.8s-.1.4-.4.4v-.5c0-.4.3-.9-.2-1.3,0,.5-.4.7-.9.8-.3,0-.9,0-1,.7l-1.1.6c0,0-.3,0-.4.2h0c-.8.3-1.4.9-2.2,1.3-.3,0-.3-.3-.3-.5,1.2-1.4,2.7-2.3,4.4-3.1,1.1-.4,2.3-.8,3.4-1.3,1.2-.3,2.5-.6,3.7-.9,1.5-.4,3.1-.5,4.5-1h-.2Z"/>
      <path d="M7.4-38.5c1-.7,2.2-1.1,3.4-1.4,2.5.5,4.8.3,6.7-1.8.5-.6,1.2-.5,1.9-.7.8-.2,1.6-.4,2.3-.6-1.3,2.7-3.7,3.9-6.5,4.3-2.6.4-5.2.2-7.8,0h0Z"/>
      <path class="cls-14" d="M6-42.3c.4-.2.7-.4,1.1-.6.3,0,.7-.2,1-.4.5-.2.8-.2,1.1.2v.5c.5,1.3,0,2.1-1.3,2.4h0c-.5.2-.9.4-1.4.6,0-1-.6-1.8-1-2.6h0c.2,0,.3,0,.4-.2h0Z"/>
      <path class="cls-9" d="M7.1-46.9c-.8.9-1.5,1.9-2.6,2.5-1.7.8-2.9,2.1-3.8,3.7-.1.2-.2.6-.6.7,1.2-3.5,3.8-5.6,7.1-6.9h0Z"/>
      <path class="cls-2" d="M82-38.7h2.5c.5,0,.7,0,.7-.7v-13.2c0-4.4,0-.4-.2-.7-.2-.4,0-.5.4-.3v13.9c0,.9-.3,1.2-1.1,1-.8,0-1.6.2-2.3-.2v.2Z"/>
      <path class="cls-2" d="M89.9-53.5c.6-1,.5-1.1-.6-1.1h-11.5c.3-.2.6-.2.9-.2h11.3c.5,0,.7,0,.7.6s-.2.7-.7.6h-.1Z"/>
      <path class="cls-9" d="M3.1-41.3c0,.2,0,.5.3.5-.8.9-1.7,1.7-2.4,2.7.4-1.3,1.1-2.3,2.1-3.2Z"/>
      <path class="cls-2" d="M123.6-54.6c-.9-.2-1.1.2-1.1,1.1v8.1c0,.3,0,.7-.2.9v-9.4c0-1,.2-1.1,1.2-.7h0Z"/>
      <path class="cls-2" d="M127.6-38.7h2.5c.6,0,.7-.2.7-.7v-5.6c0-.3-.1-.7.2-.9v6.6c0,.6-.1.8-.7.8-.9,0-1.8.2-2.7-.2Z"/>
      <path class="cls-2" d="M113.8-43c-.3,0-.3-.3-.3-.5v-8.8s0-.2,0-.2c0,2.8,0,5.7,0,8.5h0c0,.4.2.7.2,1.1h0Z"/>
      <path class="cls-9" d="M2.7-36.1c0,0,0,.3.2.3-.5.9-1.4,1.7-1.8,2.7.3-1.2.8-2.2,1.6-3.1h0Z"/>
      <path class="cls-2" d="M134.6-54.5h-8c-.2,0-.3,0-.3-.2h7.4c.3,0,.6,0,.9.2h0Z"/>
      <path class="cls-2" d="M112-54.6c-.7.2-1.5,0-2.2,0s-.7,0-.7.6c-.3,0-.7.2-.7-.4s.4-.3.7-.3c1,0,2,0,2.9,0h0Z"/>
      <path class="cls-2" d="M126.1-54.7c0,.3.2.5.4.7h-.6c-.2,0-.3-.2-.3-.4,0-.4.3-.4.5-.3Z"/>
      <path class="cls-9" d="M2.9-35.8c0,0,.2-.2.3-.2,0,0-.2,0-.3.2Z"/>
      <path class="cls-15" d="M113.6-44h0c0,0,0,0,0,0Z"/>
      <path class="cls-2" d="M131-53.1v5.8c-.3-.6-.2-1.3-.1-1.9,0-1.3-.2-2.6.1-3.8h0Z"/>
      <path class="cls-2" d="M27-49.3c0,0-.2-.2-.3-.4.8-.3,1.4-.9,2.1-1.3h0c-.4.8-1,1.3-1.8,1.6h0Z"/>
      <path class="cls-2" d="M28.9-51.3c0,.2,0,.3-.2.4h0c0-.2,0-.3.2-.3h0Z"/>
      <path class="cls-2" d="M29-51.3h0Z"/>
      <path class="cls-1" d="M15.2-42.8c-.5.5-1.3,0-1.9.4-.2.2-.3,0-.4-.4,0-.3-.1-.7-.3-1-.2-.5,0-.9.6-.9s.6-.5,1-.4c.8.6.5,1.6.9,2.3h0Z"/>
      <path class="cls-14" d="M23.3-47.5c-.2.9.6,1.7.4,2.7h0c-.7.3-1.2,0-1.5-.6-.2-.3-.4-.5-.6-.7h0c-.1-.2-.2-.4-.3-.5.6-.7,1.4-.6,2.1-.8h-.1Z"/>
      <path class="cls-1" d="M19.7-43.7h-.5c1-1.1.7-2-.8-2.5.6,0,1.1-.2,1.7-.4.8-.3,1,0,.8.7-.3.5-.2,1-.2,1.5h0c-.1.4-.6.5-.9.7h-.1Z"/>
      <path class="cls-9" d="M15.2-42.8c-.4-.8-.2-1.7-.9-2.3.4-.2.8-.4,1.3-.3.3.2.9.2.8.8-.1,1,0,1.2,1.1,1.4-.2.5-.6.2-1,.3-.3-.3-.6-.5-.9-.8-.2.4,0,.7,0,1h-.4ZM15.6-44.2c.2,0,.3,0,.3-.3,0-.3,0-.5-.4-.6-.2,0-.4,0-.3.3,0,.3,0,.5.4.7h0Z"/>
      <path class="cls-1" d="M10-43.9c0-.2,0,0,.2,0,2.1-.7,1.9-.8,2.4,1.4.3,1.1-.6.8-1.1.9.4-1.8,0-2.3-1.4-2.2h-.1Z"/>
      <path class="cls-1" d="M17.6-43.3c-1.1-.2-1.2-.4-1.1-1.4,0-.7-.5-.6-.8-.8.3,0,.6,0,.9-.2h.7c0,.2.1.3.2.5.1.5.2,1,.4,1.4,0,.2,0,.3-.2.4h-.1Z"/>
      <path class="cls-14" d="M9.6-43c0-.3-.1-.7.3-.7,1.1.3,1.4,1,.7,2.2-.1,0-.3,0-.4.2-.7-.4-.3-1.2-.7-1.7h0Z"/>
      <path class="cls-14" d="M17.7-45.5c0-.2,0-.3.2-.4.9.2,1.3.6,1.3,1.4s-.4.9-1,.8h0c0-.6-.3-1.2-.4-1.7h-.1Z"/>
      <path class="cls-9" d="M20.6-44.4c0-.5,0-1,.2-1.5.3,0,.6,0,.7-.2.2.2.4.5.6.7.4.6.8.9,1.5.7-.8.2-1.5.5-2.4.6.2-.3.7,0,.8-.5,0,0-.1-.3-.3-.3-.4-.2-.7,0-1,.2,0,0-.1.2-.2.3h0Z"/>
      <path class="cls-9" d="M18.1-43.8c.6,0,1,0,1-.8s-.3-1.2-1.3-1.4c0-.3.2-.3.4-.3,1.6.5,1.9,1.4.8,2.5-.5.5-.8.5-1.1,0h.2Z"/>
      <path class="cls-9" d="M9.6-43c.4.5,0,1.3.7,1.7-.7.6-1.3,1.3-2.4,1.2h0c1.3-.4,1.7-1.2,1.3-2.4.3,0,.3-.2.4-.4h0Z"/>
      <path class="cls-9" d="M10.7-41.5c.6-1.2.4-1.9-.7-2.2h0c1.5-.2,1.9.3,1.4,2.1h0c-.1,0-.3,0-.3.2h-.4Z"/>
      <path class="cls-9" d="M9.2-43.1c-.3-.4-.7-.5-1.1-.2-.3.2-.7.2-1,.4,0-.6.7-.6,1-.7.5,0,.8-.2.9-.8.5.5.2.9.2,1.3Z"/>
      <path class="cls-1" d="M20.6-44.4s.1-.2.2-.3c.3-.2.6-.4,1-.2.1,0,.3.2.3.3,0,.5-.6.2-.8.5h-.3c-.3,0-.4-.2-.4-.4h0Z"/>
      <path class="cls-9" d="M17.7-45.5c.2.6.4,1.1.4,1.7h-.4c-.1-.5-.2-1-.4-1.4.1,0,.2-.2.3-.4h.1Z"/>
      <path class="cls-1" d="M15.7-42.9c0-.3-.2-.6,0-1,.3.3.6.6.9.8-.2,0-.5,0-.7.2h-.2Z"/>
      <path class="cls-9" d="M20.6-44.4c0,.2,0,.4.4.4-.3.5-.8.3-1.3.3.4-.2.8-.3.9-.7Z"/>
      <path class="cls-9" d="M17.2-45.6h-.7c.3-.2.5-.3.7,0Z"/>
      <path class="cls-9" d="M15.7-42.8h.6c-.3.2-.5.2-.6,0Z"/>
      <path class="cls-9" d="M21.2-46.6c.1,0,.2.3.3.4-.2,0-.3-.2-.3-.4Z"/>
      <path class="cls-12" d="M6-42.3c0,.2-.2.2-.4.2,0-.2.2-.2.4-.2Z"/>
      <path class="cls-1" d="M11.1-41.6c0,0,.2-.2.3-.2,0,.2-.2.2-.3.2Z"/>
      <path class="cls-9" d="M23.7-44.6h0c0,0,.1,0,.2,0,0,0-.1,0-.2,0Z"/>
      <path class="cls-1" d="M15.6-44.2c-.3,0-.4-.4-.4-.7s.1-.3.3-.3c.3,0,.4.3.4.6s-.2.3-.3.3h0Z"/>
      <text class="cls-7" transform="translate(23 75.1)"><tspan x="0" y="0">DORA</tspan></text>
      <text class="cls-6" transform="translate(23 66)"><tspan x="0" y="0">DERDA</tspan></text>
      <text class="cls-4" transform="translate(60 75.1)"><tspan x="0" y="0">TOURS</tspan></text>
      <rect x="59.1" y="76.7" width="41.5" height="1"/>
      <rect class="cls-5" x="23.1" y="76.7" width="35.9" height="1"/>
      <g>
        <path d="M4.1,26.4v-.2c0,0-.1-.1-.2-.1h-1.9c-.1,0-.2,0-.2.1v.2h-.1v-1.2c0-.5.1-.8.4-1.1.2-.2.5-.4.9-.4s.7.1.9.4c.3.2.4.6.4,1.1v1.2h-.2ZM4,25.4v-.2c0-.2,0-.4-.2-.5-.2-.1-.5-.2-.9-.2s-.5,0-.7.1c-.3.1-.5.4-.5.7s0,.2,0,.2h2.3Z"/>
        <path d="M4.2,23.6h-.1v-.2c0,0-.1-.1-.2-.1h-1.8c-.1,0-.2,0-.2.1v.2h-.1v-2.2h.8c-.2.1-.4.2-.5.4s-.1.4-.1.7,0,.2,0,.2h1c0-.2,0-.4-.1-.5s-.2-.1-.5-.2h0c0-.1,1.3-.1,1.3-.1h0c-.2.1-.4.2-.5.3s-.1.2-.1.5h.9c0,0,.1,0,.2,0v-.2c0-.2,0-.5-.1-.6-.1-.2-.3-.3-.5-.4h0c0-.1.8,0,.8,0v2.3h0Z"/>
        <path d="M4.1,21.1c0-.1,0-.2,0-.3,0,0-.1,0-.3,0h-1.7c-.2,0-.2,0-.3,0,0,0,0,.1,0,.2h-.1v-1.2c0-.2,0-.5,0-.7.1-.3.3-.5.6-.5s.4,0,.5.2c.1.1.1.2.2.4l1.1-.8h0c0-.1.1-.1.1-.1v.8l-1.2.9h.8c.1,0,.2,0,.3,0s0-.1,0-.3h.1v1.3h-.1.1ZM2.8,19.6c0-.1-.2-.2-.5-.2s-.3,0-.4,0c-.1,0-.2.2-.2.4s0,.2,0,.2h1.1c0-.2,0-.4-.1-.5h0Z"/>
        <path d="M4.1,18.3v-.2c0,0-.1-.1-.2-.1h-1.9c-.1,0-.2,0-.2.1v.2h-.1v-1.2c0-.5.1-.8.4-1.1s.5-.4.9-.4.7.1.9.4c.3.2.4.6.4,1.1v1.2h-.2ZM4,17.3v-.2c0-.2,0-.4-.2-.5-.2-.1-.5-.2-.9-.2s-.5,0-.7.1c-.3.1-.5.4-.5.7s0,.2,0,.2h2.3Z"/>
        <path d="M4.1,15.5c0-.1,0-.2-.1-.2,0,0-.2,0-.3-.2l-2.1-.8h0c0-.1,2-.9,2-.9.2-.1.4-.2.4-.2s.1-.1.1-.2h.1v1.2h-.1v-.2h-.6v1c.2,0,.2.1.3.1h.2c0,0,.1,0,.1-.1v-.2h.1v.8h-.2ZM3.3,14.1l-.9.4h0l.9.4v-.8h0Z"/>
      </g>
      <g>
        <path d="M3.7,26.8c.6,0,1,0,1.3-.3.5-.2.7-.7.7-1.3v-11.4c0-.6-.2-1-.7-1.3-.3,0-.7-.2-1.3-.3v-.6h7.1c2.9,0,5,.8,6.5,2.3,1.4,1.4,2.1,3.3,2.1,5.5s-.7,3.9-2.1,5.3c-1.6,1.7-3.7,2.5-6.3,2.5H3.7v-.6h0ZM9.6,26.3c.2.2.5.3,1,.3,1.4,0,2.5-.5,3.4-1.5s1.3-2.9,1.3-5.5-.2-3.1-.7-4.2c-.8-1.9-2.1-2.9-3.9-2.9s-1,0-1.2.4c0,.2-.2.5-.2,1v11.4c0,.5,0,.8.3,1h0Z"/>
        <path d="M34.8,13.7c1.6,1.6,2.4,3.6,2.4,5.9s-.8,4.4-2.4,5.9c-1.6,1.5-3.5,2.3-5.8,2.3s-4.4-.8-6-2.5c-1.5-1.6-2.2-3.5-2.2-5.6s.8-4.4,2.3-5.9,3.6-2.4,5.9-2.4,4.2.8,5.8,2.3ZM32.6,24.1c.4-1.1.5-2.6.5-4.3s-.4-4.3-1.1-5.5c-.7-1.3-1.8-1.9-3-1.9s-3,1.1-3.6,3.2c-.3,1.1-.5,2.6-.5,4.3s.2,3.3.5,4.3c.6,2.1,1.9,3.1,3.6,3.1s3-1,3.6-3.1h0Z"/>
        <path d="M38.4,26.8c.8,0,1.3-.2,1.6-.4s.4-.8.4-1.7v-10.3c0-.9-.2-1.5-.5-1.8-.2-.2-.7-.3-1.5-.4v-.6h7.4c1.6,0,2.8.2,3.8.5,1.9.7,2.8,1.9,2.8,3.6s-.5,2.3-1.5,3c-.8.5-1.5.9-2.4,1.1l4.9,6.6c0,.2.3.3.4.4s.3,0,.5,0v.6h-4.8l-5.4-7.2h0v4.5c0,.8,0,1.4.4,1.7s.8.4,1.6.5v.6h-7.8v-.6l.2-.2ZM47.4,18.8c.7-.4,1-1.3,1-2.8s0-1.6-.4-2.1c-.4-.9-1.2-1.3-2.4-1.3s-1,0-1.2.2-.3.4-.3.8v5.9c1.5,0,2.6-.2,3.3-.6v-.2Z"/>
        <path d="M55.1,26.8c.6,0,1-.3,1.4-.8.2-.3.5-1,.9-2l5.1-12.6h.7l5.1,12.1c.6,1.4,1,2.3,1.3,2.7s.7.6,1.2.6v.6h-7.5v-.6c.8,0,1.3,0,1.5-.2s.4-.4.4-.8,0-.5-.2-.8c0-.2-.2-.5-.3-.8l-.6-1.4h-5.2c-.3.9-.6,1.5-.7,1.8-.2.6-.3,1-.3,1.3s.2.6.7.7c.3,0,.7,0,1.2,0v.6h-4.7v-.6h0ZM63.8,22l-2.3-5.3h-.2l-2.1,5.3h4.5Z"/>
        <path class="cls-5" d="M75.3,11.8h13.9v4.6h-.7c-.2-1.7-.9-2.8-1.9-3.4-.6-.3-1.5-.5-2.6-.5v12.1c0,.9.2,1.4.5,1.7.3.3.9.4,1.9.4v.6h-8.2v-.6c.9,0,1.5,0,1.8-.4s.5-.9.5-1.7v-12.1c-1.1,0-2,.2-2.6.5-1.1.6-1.8,1.8-1.9,3.4h-.7v-4.6h0Z"/>
        <path class="cls-5" d="M104.4,13.7c1.6,1.6,2.4,3.6,2.4,5.9s-.8,4.4-2.4,5.9-3.5,2.3-5.8,2.3-4.4-.8-6-2.5c-1.5-1.6-2.2-3.5-2.2-5.6s.8-4.4,2.3-5.9c1.6-1.6,3.6-2.4,5.9-2.4s4.2.8,5.8,2.3ZM102.2,24.1c.4-1.1.5-2.6.5-4.3s-.4-4.3-1.1-5.5c-.7-1.3-1.8-1.9-3-1.9s-3,1.1-3.6,3.2c-.3,1.1-.5,2.6-.5,4.3s.2,3.3.5,4.3c.7,2.1,1.9,3.1,3.6,3.1s3-1,3.6-3.1h0Z"/>
        <path class="cls-5" d="M115.9,11.8v.6c-.9,0-1.5.2-1.8.4s-.5.8-.5,1.7v7.7c0,1.2,0,2.1.4,2.8.5,1.2,1.5,1.8,2.9,1.8s3-.7,3.6-2c.4-.7.5-1.8.5-3.1v-7.1c0-.8-.2-1.4-.5-1.7s-.9-.5-1.8-.6v-.6h5v.6c-.7,0-1.2.3-1.5.5s-.4.7-.4,1.4v7.4c0,2-.5,3.5-1.4,4.5s-2.5,1.6-4.4,1.6-4.4-.8-5.4-2.4c-.5-.9-.8-2-.8-3.3v-7.7c0-.9,0-1.4-.3-1.7-.2-.2-.8-.4-1.6-.5v-.6h7.8l.2.2Z"/>
        <path class="cls-5" d="M124.7,26.8c.8,0,1.3-.2,1.6-.4s.4-.8.4-1.7v-10.3c0-.9-.2-1.5-.5-1.8-.2-.2-.7-.3-1.5-.4v-.6h7.4c1.6,0,2.8.2,3.8.5,1.9.7,2.8,1.9,2.8,3.6s-.5,2.3-1.5,3c-.8.5-1.5.9-2.4,1.1l4.9,6.6c0,.2.3.3.4.4s.3,0,.5,0v.6h-4.8l-5.4-7.2h0v4.5c0,.8,0,1.4.4,1.7s.8.4,1.6.5v.6h-7.8v-.6l.2-.2ZM133.7,18.8c.7-.4,1-1.3,1-2.8s0-1.6-.4-2.1c-.4-.9-1.2-1.3-2.4-1.3s-1,0-1.2.2-.3.4-.3.8v5.9c1.5,0,2.6-.2,3.3-.6v-.2Z"/>
        <path class="cls-5" d="M141.8,22h.7c.4,1.7,1,3,1.8,3.8s1.8,1.2,2.9,1.2,1.8-.3,2.2-.8.7-1.1.7-1.7-.2-1.3-.7-1.7c-.3-.3-.9-.7-1.8-1.1l-1.5-.8c-1.5-.7-2.5-1.5-3.1-2.2s-.9-1.6-.9-2.7.4-2.2,1.2-3.2,2-1.5,3.7-1.5,1.7,0,2.5.4,1.2.4,1.4.4c.3,0,.4,0,.5-.2s.2-.3.2-.6h.7v5h-.7c-.3-1.2-.8-2.2-1.6-3.1-.8-.9-1.7-1.3-2.8-1.3s-1.4.2-1.8.6c-.5.4-.7,1-.7,1.6s.2,1.3.6,1.7c.4.4,1.3.9,2.8,1.6l1.7.9c.8.4,1.4.8,1.8,1.3.9.9,1.3,2,1.3,3.2s-.5,2.3-1.4,3.3-2.4,1.6-4.3,1.6-.9,0-1.4,0c-.5,0-.9-.2-1.4-.4l-.4-.2h-.5c-.2,0-.4,0-.5.2s-.2.3-.2.6h-.7v-5.7h-.2Z"/>
        <rect x="72.9" y="30.5" width="79.9" height="2"/>
        <rect class="cls-5" x="3.7" y="30.5" width="69.2" height="2"/>
      </g>
      <rect class="cls-5" x="-26.5" width="12" height="40"/>
    </g>
  </g>
</svg>