<?xml version="1.0" encoding="UTF-8"?>
<svg xmlns="http://www.w3.org/2000/svg" version="1.1" viewBox="0 0 41 40">
  <defs>
    <style>
      .cls-1 {
        font-size: 3.3px;
      }

      .cls-1, .cls-2 {
        font-family: Times-Bold, Times;
        font-weight: 700;
      }

      .cls-3 {
        fill: #2d1028;
      }

      .cls-4 {
        fill: #9b8b7c;
      }

      .cls-5 {
        fill: #a58a59;
      }

      .cls-6 {
        fill: #937b62;
      }

      .cls-7 {
        fill: #a1895c;
      }

      .cls-8 {
        fill: #a48a58;
      }

      .cls-9 {
        fill: #040203;
      }

      .cls-2 {
        font-size: 12px;
      }

      .cls-10 {
        fill: #fff;
      }

      .cls-11 {
        fill: #f9f9f9;
      }

      .cls-12 {
        fill: #a88c57;
      }

      .cls-13 {
        fill: #f8f7f6;
      }

      .cls-14 {
        fill: #220729;
      }

      .cls-15 {
        fill: #a68b58;
      }
    </style>
  </defs>
  <!-- Generator: Adobe Illustrator 28.7.1, SVG Export Plug-In . SVG Version: 1.2.0 Build 142)  -->
  <g>
    <g id="katman_1">
      <g>
        <g>
          <path class="cls-15" d="M-115.5,28.4c0-2.1,0-4.1,0-6.2,0-.4,0-.9-.5-1.1,0,0-.2-.2-.2-.3,0,0,0,0,0,0,0,0,0,0,.1,0,1.3,0,2.5,0,3.8,0,.6,0,1.1.2,1.6.6.6.5.8,1.1.7,1.8-.1.8-.7,1.3-1.5,1.5-.4.1-.4.3-.2.6.4.7.8,1.3,1.3,2,.3.4.6.7,1,.9,0,0,.2,0,.2.2,0,.2-.2.2-.2.2-.8.1-1.5,0-2-.6-.8-.8-1.2-1.7-1.8-2.6-.2-.3-.3-.5-.7-.4-.2.1,0,.3,0,.4,0,.9,0,1.8,0,2.6,0,.3,0,.4-.3.3-.4,0-.8,0-1.2,0ZM-113.9,21.5c-.2.6,0,1.2,0,1.8,0,.3,0,.6,0,.9.3.2.7,0,1,0,.6,0,1.1-.5,1.3-1,.2-.6,0-1.3-.5-1.6-.5-.3-1.3-.4-1.8-.1Z"/>
          <path class="cls-5" d="M-133.2,24.6c0-2.4,1.7-4.1,4-4.1,2.3,0,3.9,1.7,3.9,4.1,0,2.4-1.7,4.1-4,4.1-2.3,0-3.9-1.7-3.9-4.1ZM-131.5,24.7c0,.6,0,1.2.3,1.8.3.8.8,1.5,1.7,1.6.9.1,1.7-.2,2.1-1.1.8-1.6.8-3.2,0-4.8-.4-.8-1.1-1.1-2-1-.9,0-1.5.6-1.8,1.4-.3.7-.4,1.4-.3,2.1Z"/>
          <path class="cls-8" d="M-103.3,22.5c0,.2,0,.4,0,.6,0,.1,0,.2-.2.2-.2,0-.2,0-.2-.2,0-.3-.1-.5-.3-.8-.4-1-1.5-1.4-2.6-1.1-.4.1-.7.4-.7.8,0,.4,0,.8.4,1,.6.5,1.3.8,1.9,1.2.4.3.9.5,1.3.8,1.1.9.8,2.7-.5,3.2-1.2.5-2.4.5-3.6,0-.6-.2-.9-.7-.8-1.3,0-.2,0-.5,0-.7,0-.1,0-.3.1-.3.2,0,.2.1.3.3,0,.3.2.6.3.9.5.9,2.1,1.3,3,.7.5-.3.6-1.1.1-1.6-.4-.5-1-.7-1.5-1.1-.5-.3-1-.6-1.5-.9-.7-.5-1-1.2-.8-2.1.2-.9.9-1.3,1.7-1.5.8-.2,1.5-.1,2.3,0,1.1.3,1.3.7,1.3,1.8Z"/>
          <path class="cls-15" d="M-122.9,20.8c.5.1.7.3.8,1,0,0,0,0,0,.1,0,1.4,0,2.8,0,4.2,0,.1,0,.2.2.3,0,0,0,0,0,.1.4,1.2.9,1.6,2,1.5,1.1,0,1.8-.7,1.9-1.9,0-.2,0-.3,0-.5.1-.1,0-.3,0-.4,0-1.3,0-2.6,0-3.8,0-.4,0-.6.5-.5,0,1.7.1,3.5,0,5.2-.2,1.6-1.1,2.4-2.7,2.5-.8,0-1.5,0-2.2-.4-1-.6-1.3-1.5-1.4-2.6,0-1.1,0-2.3,0-3.4,0-.4,0-.8-.5-1,0-.2.1-.3.3-.3.3,0,.7,0,1,0Z"/>
          <path class="cls-12" d="M-133.4,21.3c-.7,0-1.4,0-2.1,0-.2,0-.3,0-.2.1,0,.1,0,.2,0,.3,0,2.1,0,4.2,0,6.3,0,.3-.1.3-.3.3-.4,0-.8,0-1.2,0,0-2.2,0-4.4,0-6.6,0-.4-.1-.5-.5-.5-.2,0-.4,0-.6,0-.7,0-1.1.4-1.2,1.1,0,.1,0,.2-.2.2-.2,0-.2-.1-.2-.2,0-.3,0-.6,0-.9,0-.4.2-.6.6-.7,1.8,0,3.6,0,5.5,0,.5,0,.6,0,.3.5Z"/>
          <path class="cls-4" d="M-137.2,28.4c.4,0,.8,0,1.2,0,.2,0,.3,0,.3-.3,0-2.1,0-4.2,0-6.3s0-.2,0-.3c-.1-.2,0-.2.2-.1,0,2.2,0,4.4,0,6.6,0,.4-.1.6-.5.5-.4,0-.8.1-1.1,0Z"/>
          <path class="cls-4" d="M-133.4,21.3c.3-.5.2-.5-.3-.5-1.8,0-3.6,0-5.5,0,.1,0,.3,0,.4,0,1.8,0,3.6,0,5.4,0,.2,0,.3,0,.3.3,0,.3-.1.4-.4.3Z"/>
          <path class="cls-4" d="M-117.4,20.8c-.4,0-.5.1-.5.5,0,1.3,0,2.6,0,3.8,0,.1,0,.3,0,.4,0-1.5,0-3,0-4.5,0-.5,0-.5.6-.3Z"/>
          <path class="cls-4" d="M-115.5,28.4c.4,0,.8,0,1.2,0,.3,0,.3,0,.3-.3,0-.9,0-1.8,0-2.6,0-.1,0-.3,0-.4,0,1.1,0,2.1,0,3.2,0,.3,0,.4-.4.4-.4,0-.9.1-1.3,0Z"/>
          <path class="cls-4" d="M-122.1,26.3c-.2,0-.2-.1-.2-.3,0-1.4,0-2.8,0-4.2,0,0,0,0,0-.1,0,1.3,0,2.7,0,4,0,0,0,0,0,0,0,.1,0,.3,0,.5Z"/>
          <path class="cls-4" d="M-112.2,20.8c-1.3,0-2.5,0-3.8,0,0,0-.1,0-.1,0,1.2,0,2.3,0,3.5,0,.1,0,.3,0,.4,0Z"/>
          <path class="cls-4" d="M-122.9,20.8c-.3,0-.7,0-1,0-.2,0-.3,0-.3.3-.1,0-.3,0-.3-.2,0-.2.2-.2.3-.2.5,0,.9,0,1.4,0Z"/>
          <path class="cls-4" d="M-116.2,20.8c0,.2,0,.2.2.3,0,0-.2,0-.3,0-.1,0-.1,0-.1-.2,0-.2.1-.2.3-.2Z"/>
          <path class="cls-15" d="M-122.1,25.9s0,0,0,0c0,0,0,0,0,0h0Z"/>
          <path class="cls-4" d="M-113.9,21.5c0,.9,0,1.8,0,2.7-.2-.3,0-.6,0-.9,0-.6,0-1.2,0-1.8Z"/>
        </g>
        <g>
          <path class="cls-11" d="M-118.8,16.4c0-1.1,0-2.2,0-3.3,0-.8-.1-1-.9-1.2-.2,0-.1-.1-.2-.2,0-.2.2-.2.3-.2.8,0,1.7,0,2.5,0,.9,0,1.8,0,2.6.2,1.5.4,2.2,1.5,1.8,2.8-.2.8-.8,1.2-1.6,1.4-.5.2-.5.2-.2.7.5.7.9,1.5,1.4,2.2.3.4.6.7,1,.9.3.1.4.1.6-.2,1.1-2.6,2.3-5.1,3.5-7.6,0-.2.1-.4.5-.4.4,0,.4.2.5.4.9,2.2,1.8,4.4,2.8,6.5.3.6.6,1.2,1.3,1.4.1,0,.1,0,.1.2,0,.2-.1.2-.2.2-1,.2-2.1-.2-2.6-1.1,0,0-.1-.2-.2-.3-.2-1-.8-1.1-1.7-1-.7,0-1.3,0-2,0-.3,0-.4,0-.5.3-.3.6-.6,1.2-.8,1.7,0,.1,0,.3-.3.3-.4,0-.7,0-1.1,0-1,0-1.8-.4-2.3-1.2-.5-.7-1-1.5-1.5-2.3,0-.1-.1-.2-.2-.3-.1-.2-.3-.2-.5-.2-.2,0-.1.2-.1.3,0,1.1,0,2.1,0,3.2,0,.3,0,.4-.4.4-.3,0-.7,0-1,0-.4,0-.5,0-.5-.5,0-1.1,0-2.2,0-3.3ZM-117,13.8v.8q0,.9,1,.9c.8,0,1.4-.5,1.6-1.2.1-.7,0-1.3-.5-1.8-.6-.5-1.2-.5-1.9-.3-.2,0-.2.2-.2.3,0,.4,0,.9,0,1.3ZM-109.7,17.1h3c-.5-1.1-1-2.2-1.5-3.4-.5,1.2-1,2.3-1.6,3.4Z"/>
          <path class="cls-13" d="M-128.9,14.2c.6-1.9,2.4-3.1,4.5-3,2.1.2,3.7,1.6,4,3.6.3,1.7,0,3.2-1.4,4.4-2.1,1.9-6.3,1.3-7.2-2.2,0,0,0-.1,0-.2.4-.4,1.1-.5,1.4-1.1-.6.2-1,.6-1.5.6,0-.5,0-1.1,0-1.6.2-.2.5-.3.7-.5.4-.2.8-.5,1-.9,0,0,.1-.1,0-.2,0,0,0,0,0,0,0,0,0,0,0,0,0,0-.1,0-.1.2-.4.2-.7.5-1.1.7-.1,0-.2.2-.4,0ZM-127.3,15.7c0,.9,0,1.8.5,2.6.4.9,1.1,1.4,2.1,1.4,1,0,1.8-.5,2.2-1.4.7-1.7.7-3.3,0-5-.3-.7-.7-1.1-1.4-1.3-1.5-.4-2.7.4-3.1,2-.1.5-.1,1-.2,1.6h0Z"/>
          <path class="cls-11" d="M-138.8,16.9c0-1.2,0-2.5,0-3.7,0-.2,0-.4,0-.6,0-.5-.3-.7-.8-.7-.2,0-.2,0-.2-.2,0-.2,0-.2.2-.2,1.9,0,3.9-.2,5.8.3,1.6.4,2.7,1.3,3.1,3.1-.5.4-1.1.4-1.8.4-.3-2.1-1.7-3.3-4-3.1-.3,0-.5.1-.5.5,0,1.2,0,2.4,0,3.6-.6.2-1.2.5-1.8.7Z"/>
          <path class="cls-7" d="M-132.5,15.2c.6,0,1.2,0,1.8-.4.7,0,1.3-.2,1.9-.6.1.1.2,0,.4,0,0,0,.1.1.2.2-.2.2-.5.3-.7.5-.4.2-.8.3-1.2.5-.4.1-.8,0-1.1.4,0,.1,0,.2.2.2,0,0,0,0,0,0,0,.2-.2.1-.4.1,0-.4,0-.5-.4-.4-.3.1-.6.1-.9.2-.1,0-.2,0-.2.2,0,0-.1.1-.1.2,0,0-.1.1-.2.2,0,0,0-.2-.1-.3-.1-.2-.2-.2-.4,0-.2,0-.3,0-.5.1-.3,0-.5,0-.7.2-.2,0-.3.2-.5.2-.3,0-.4.2-.3.5,0,.2,0,.4.1.5,0,.1,0,.3.2.2.3-.2.7,0,1-.2,0,0,.2,0,.2,0,0,0,0,0,0,0,0,.1.2.1.3,0-.1,0-.2,0-.3,0,.1,0,.3,0,.4-.1.2,0,.4.1.5-.1.1,0,.1-.1.1-.2,0,0,.1,0,.2,0h0c.1.3.3.3.6,0,0,0,.2,0,.3,0,.2,0,.5.1.7-.2,0,0,.1,0,.2,0,.4,0,.8-.2,1.3-.3h0s0,0,.1,0c.3-.2.6,0,.9-.3.5,0,.9-.4,1.5-.6-.4.6-1,.7-1.4,1.1-.7.2-1.4.5-2.1.7-.4,0-.8.2-1.2.3-.3,0-.7,0-1,.4,0,0,0-.1-.1,0-1.1.3-2.3.6-3.4,1-.6.2-1.3.4-1.8.8-.9.2-1.6.8-2.3,1.4,0,0-.1,0-.2.1,0,0,0,0,0,0,0,0,0-.1,0-.2.5-.8,1.3-1.3,2-1.8.2-.1.5-.2.7-.3.6,0,.9-.3,1.3-.6,0,0,.1,0,.2-.1,0,0,.1,0,.2,0,0,0,.2,0,.2,0h0c.3,0,.7,0,.6-.5-.3-1.2-.1-1.1-1.3-.7,0,0-.1,0,0,0,0,0,0,0,0,0-.3,0-.2.2-.2.4,0,.1,0,.2-.2.2,0,0,0-.2,0-.2,0-.2.2-.5-.1-.7,0,.3-.2.4-.5.4-.2,0-.5,0-.5.4l-.6.3c0,0-.2,0-.2.1h0c-.4.1-.8.5-1.2.7-.2,0-.2-.1-.2-.3.6-.7,1.5-1.2,2.3-1.7.6-.2,1.2-.5,1.8-.7.7-.2,1.3-.3,2-.5.8-.2,1.6-.3,2.4-.5Z"/>
          <path class="cls-13" d="M-138.8,20.1c.6-.4,1.2-.6,1.8-.8,1.3.3,2.6.1,3.6-.9.3-.3.7-.3,1-.4.4-.1.8-.2,1.2-.3-.7,1.5-2,2.1-3.5,2.3-1.4.2-2.8.1-4.2,0Z"/>
          <path class="cls-14" d="M-139.6,18.1c.2-.1.4-.2.6-.3.2,0,.4-.1.5-.2.2-.1.4,0,.6.1,0,0,0,.2,0,.2.2.7,0,1.1-.7,1.3,0,0,0,0,0,0-.2.1-.5.2-.7.3,0-.5-.3-1-.5-1.4,0,0,0,0,0,0,0,0,.2,0,.2-.1Z"/>
          <path class="cls-6" d="M-139,15.6c-.4.5-.8,1-1.4,1.3-.9.4-1.5,1.1-2,2,0,.1-.1.3-.3.4.7-1.9,2-3,3.8-3.7Z"/>
          <path class="cls-6" d="M-141.1,18.6c0,.1,0,.3.2.3-.4.5-.9.9-1.3,1.4.2-.7.6-1.2,1.1-1.7Z"/>
          <path class="cls-6" d="M-141.3,21.4c0,0,0,.1,0,.2-.3.5-.7.9-1,1.5.1-.6.4-1.2.9-1.6Z"/>
          <path class="cls-6" d="M-141.2,21.6c0,0,0,0,.2-.1,0,0-.1,0-.2.1Z"/>
          <path class="cls-4" d="M-128.4,14.4c0,0-.1-.1-.2-.2.4-.2.7-.5,1.1-.7,0,0,0,0,0,0-.2.4-.5.7-1,.9Z"/>
          <path class="cls-4" d="M-127.3,13.3c0,0,0,.2,0,.2,0,0,0,0,0,0,0,0,0-.2.1-.2h0Z"/>
          <path class="cls-4" d="M-127.3,13.3s0,0,0,0c0,0,0,0,0,0,0,0,0,0,0,0Z"/>
          <path class="cls-3" d="M-134.7,17.8c-.3.2-.7,0-1,.2-.1,0-.2,0-.2-.2,0-.2,0-.4-.1-.5-.1-.3,0-.5.3-.5.2,0,.3-.3.5-.2.4.3.3.8.5,1.2Z"/>
          <path class="cls-14" d="M-130.3,15.3c0,.5.3.9.2,1.4,0,0,0,0,0,0,0,0,0,0,0,0-.4,0-.6,0-.8-.4,0-.1-.2-.3-.3-.4,0,0,0,0,0,0,0,0-.1-.1-.2-.2.3-.4.8-.3,1.1-.4Z"/>
          <path class="cls-3" d="M-132.3,17.3c0,0-.2,0-.3,0,.5-.6.4-1.1-.5-1.3.3,0,.6-.1.9-.2.4-.2.5,0,.4.4-.2.2-.1.5-.1.8h0c0,.2-.3.3-.5.4Z"/>
          <path class="cls-6" d="M-134.7,17.8c-.2-.4,0-.9-.5-1.2.2,0,.4-.2.7-.2.2.1.5,0,.5.4,0,.5,0,.6.6.7-.1.3-.3.1-.5.1-.2-.1-.3-.3-.5-.5,0,.2,0,.4,0,.5,0,0-.2,0-.2,0ZM-134.5,17c0,0,.2,0,.2-.2,0-.2,0-.3-.2-.3-.1,0-.2,0-.2.1,0,.1,0,.3.2.3Z"/>
          <path class="cls-3" d="M-137.5,17.2c0,0,0,0,0,0,1.1-.3,1-.4,1.3.7.1.6-.3.4-.6.5.2-.9,0-1.2-.8-1.2Z"/>
          <path class="cls-3" d="M-133.4,17.6c-.6,0-.7-.2-.6-.7,0-.3-.3-.3-.5-.4.2,0,.3,0,.5-.1.1,0,.2,0,.4,0,0,0,0,.2.1.3,0,.3.1.5.2.8,0,0,0,.2-.1.2Z"/>
          <path class="cls-14" d="M-137.6,17.7c0-.2,0-.4.2-.4.6.1.7.5.4,1.2,0,0-.1,0-.2.1-.4-.2-.2-.6-.4-.9Z"/>
          <path class="cls-14" d="M-133.3,16.4c0,0,0-.2.1-.2.5,0,.7.3.7.7,0,.3-.2.5-.6.4,0,0,0,0,0,0,0-.3-.1-.6-.2-.9Z"/>
          <path class="cls-6" d="M-131.8,16.9c0-.3,0-.5.1-.8.1,0,.3,0,.4-.1.1.1.2.3.3.4.2.3.4.5.8.4-.4.1-.8.3-1.3.3.1-.1.4,0,.4-.2,0,0,0-.2-.1-.2-.2-.1-.4,0-.5.1,0,0,0,0-.1.1Z"/>
          <path class="cls-6" d="M-133.1,17.3c.3,0,.5,0,.6-.4,0-.4-.2-.7-.7-.7,0-.1.1-.2.2-.2.8.3,1,.7.5,1.3-.3.3-.4.3-.6,0Z"/>
          <path class="cls-6" d="M-137.6,17.7c.2.3,0,.7.4.9-.4.3-.7.7-1.3.6,0,0,0,0,0,0,.7-.2.9-.6.7-1.3.1,0,.2,0,.2-.2Z"/>
          <path class="cls-6" d="M-137.1,18.5c.3-.6.2-1-.4-1.2,0,0,0,0,0,0,.8,0,1,.2.8,1.2,0,0,0,0,0,0,0,0-.1,0-.2,0,0,0-.1,0-.2,0Z"/>
          <path class="cls-6" d="M-137.9,17.7c-.2-.2-.4-.3-.6-.1-.2,0-.3.1-.5.2,0-.3.4-.3.5-.4.3,0,.4-.1.5-.4.3.2.1.5.1.7Z"/>
          <path class="cls-3" d="M-131.8,16.9c0,0,0-.1.1-.1.2-.1.3-.2.5-.1,0,0,.1.1.1.2,0,.2-.3.1-.4.2,0,0-.1,0-.2,0-.1,0-.2,0-.2-.2h0Z"/>
          <path class="cls-6" d="M-133.3,16.4c0,.3.2.6.2.9,0,0-.1,0-.2,0,0-.3-.1-.5-.2-.8,0,0,.1-.1.2-.2Z"/>
          <path class="cls-3" d="M-134.4,17.8c0-.2,0-.3,0-.5.2.2.3.3.5.5-.1,0-.3,0-.4.1,0,0,0,0,0,0,0,0,0,0,0,0Z"/>
          <path class="cls-6" d="M-131.8,16.9c0,.1,0,.2.2.2-.2.3-.4.1-.7.2.2,0,.4-.1.5-.4Z"/>
          <path class="cls-6" d="M-133.6,16.3c-.1,0-.2,0-.4,0,.1-.1.3-.2.4,0Z"/>
          <path class="cls-6" d="M-134.4,17.8s0,0,0,0c0,0,.2,0,.3,0-.2,0-.3,0-.3,0Z"/>
          <path class="cls-6" d="M-131.5,15.8c0,0,.1.1.2.2-.1,0-.2,0-.2-.2Z"/>
          <path class="cls-9" d="M-139.6,18.1c0,.1-.1.1-.2.1,0,0,.1,0,.2-.1Z"/>
          <path class="cls-3" d="M-136.9,18.5c0,0,0,0,.2,0,0,0-.1,0-.2,0Z"/>
          <path class="cls-6" d="M-130.1,16.8s0,0,0,0c0,0,0,0,0,0,0,0,0,0-.1,0Z"/>
          <path class="cls-3" d="M-134.5,17c-.2,0-.2-.2-.2-.3,0-.1,0-.2.2-.1.2,0,.2.2.2.3,0,.1,0,.2-.2.2Z"/>
        </g>
      </g>
      <g>
        <g>
          <path class="cls-10" d="M5.1,21.6c.5,0,.9-.1,1.2-.2.4-.2.6-.6.6-1.2v-10.8c0-.6-.2-1-.6-1.2-.2-.1-.6-.2-1.2-.3v-.6h6.7c2.7,0,4.7.7,6.2,2.2,1.3,1.3,1.9,3.1,1.9,5.3s-.6,3.6-1.9,5c-1.5,1.5-3.4,2.3-5.9,2.3h-6.9v-.6ZM10.7,21.1c.1.2.5.3.9.3,1.3,0,2.4-.5,3.2-1.4s1.2-2.7,1.2-5.3-.2-2.9-.7-4c-.7-1.8-1.9-2.7-3.7-2.7s-.9.1-1.1.4c-.1.2-.2.5-.2.9v10.7c0,.4.1.8.3,1Z"/>
          <path class="cls-10" d="M34.5,9.2c1.5,1.5,2.2,3.3,2.2,5.6s-.7,4.2-2.2,5.6c-1.5,1.4-3.3,2.1-5.5,2.1s-4.2-.8-5.7-2.3c-1.4-1.5-2.1-3.2-2.1-5.3s.7-4.2,2.2-5.6c1.4-1.5,3.3-2.2,5.6-2.2s4,.7,5.5,2.1ZM32.4,18.9c.3-1.1.5-2.4.5-4.1s-.3-4.1-1-5.2c-.7-1.2-1.6-1.8-2.8-1.8s-2.8,1-3.4,2.9c-.3,1-.5,2.4-.5,4.1s.2,3.1.5,4.1c.6,1.9,1.7,2.9,3.4,2.9s2.8-1,3.4-2.9Z"/>
          <path class="cls-10" d="M5.2,37.9c.7,0,1.2-.2,1.5-.4s.4-.8.4-1.6v-9.6c0-.8-.2-1.4-.5-1.6-.2-.2-.7-.3-1.4-.3v-.6h7c1.5,0,2.6.2,3.5.5,1.7.6,2.6,1.7,2.6,3.3s-.5,2.1-1.4,2.8c-.7.5-1.4.8-2.2,1l4.6,6.2c.1.2.2.3.4.3s.3,0,.5.1v.5h-4.6l-5.1-6.8h0v4.3c0,.8.1,1.3.4,1.5s.8.4,1.5.4v.6h-7.4v-.6ZM13.7,30.4c.6-.4.9-1.3.9-2.6s-.1-1.5-.4-2c-.4-.8-1.1-1.2-2.2-1.2s-1,0-1.1.2-.3.4-.3.7v5.5c1.4,0,2.4-.2,3.1-.6Z"/>
          <path class="cls-10" d="M20.9,37.9c.5,0,.9-.3,1.3-.7.2-.3.5-.9.9-1.8l4.8-11.9h.6l4.9,11.5c.5,1.3,1,2.1,1.2,2.5s.7.6,1.2.5v.6h-7.1v-.6c.7,0,1.2,0,1.4-.2s.3-.3.3-.7,0-.4-.2-.8c0-.2-.2-.5-.3-.7l-.6-1.3h-4.9c-.3.9-.5,1.4-.6,1.7-.2.6-.3,1-.3,1.2s.2.5.6.7c.2,0,.6.1,1.1.1v.6h-4.5v-.6ZM29.1,33.4l-2.1-5h-.2l-2,5h4.2Z"/>
        </g>
        <g>
          <path class="cls-10" d="M4.9,5.5c.2,0,.3,0,.3,0,.1,0,.2-.2.2-.3v-3c0-.2,0-.3-.2-.3,0,0-.2,0-.3,0v-.2h1.9c.7,0,1.3.2,1.7.6.4.4.5.8.5,1.5s-.2,1-.5,1.4c-.4.4-1,.6-1.6.6h-1.9v-.2ZM6.4,5.4c0,0,.1,0,.3,0,.4,0,.7-.1.9-.4.2-.3.3-.7.3-1.5s0-.8-.2-1.1c-.2-.5-.5-.7-1-.7s-.3,0-.3.1c0,0,0,.1,0,.3v3c0,.1,0,.2,0,.3Z"/>
          <path class="cls-10" d="M9.3,5.7v-.2c.2,0,.3,0,.4,0,.1,0,.2-.2.2-.4v-2.9c0-.2,0-.3-.2-.4,0,0-.2,0-.4,0v-.2h3.5v1.2h-.1c0-.4-.2-.7-.4-.8s-.5-.2-1-.2-.3,0-.4,0c0,0,0,.1,0,.2v1.4c.3,0,.6,0,.7-.2.1-.1.2-.4.3-.7h.2v2h-.2c0-.3-.1-.6-.3-.7s-.4-.2-.7-.2v1.5c0,.1,0,.2,0,.3,0,0,.2,0,.4,0,.4,0,.7,0,.9-.2.2-.1.5-.4.7-.8h.2l-.2,1.3h-3.5Z"/>
          <path class="cls-10" d="M13.3,5.5c.2,0,.3,0,.4-.1,0,0,.1-.2.1-.4v-2.7c0-.2,0-.4-.1-.5,0,0-.2,0-.4,0v-.2h1.9c.4,0,.7,0,1,.1.5.2.7.5.7.9s-.1.6-.4.8c-.2.1-.4.2-.6.3l1.3,1.7s0,0,.1,0c0,0,0,0,.1,0h0c0,.1-1.3.1-1.3.1l-1.4-1.9h0v1.2c0,.2,0,.4.1.4,0,0,.2.1.4.1v.2h-2v-.2ZM15.7,3.4c.2-.1.3-.3.3-.7s0-.4,0-.6c-.1-.2-.3-.3-.6-.3s-.3,0-.3,0c0,0,0,.1,0,.2v1.5c.4,0,.7,0,.9-.2Z"/>
          <path class="cls-10" d="M17.7,5.5c.2,0,.3,0,.3,0,.1,0,.2-.2.2-.3v-3c0-.2,0-.3-.2-.3,0,0-.2,0-.3,0v-.2h1.9c.7,0,1.3.2,1.7.6.4.4.5.8.5,1.5s-.2,1-.5,1.4c-.4.4-1,.6-1.6.6h-1.9v-.2ZM19.2,5.4c0,0,.1,0,.3,0,.4,0,.7-.1.9-.4.2-.3.3-.7.3-1.5s0-.8-.2-1.1c-.2-.5-.5-.7-1-.7s-.3,0-.3.1c0,0,0,.1,0,.3v3c0,.1,0,.2,0,.3Z"/>
          <path class="cls-10" d="M22.1,5.5c.1,0,.3,0,.4-.2,0,0,.1-.2.2-.5l1.3-3.3h.2l1.4,3.2c.2.4.3.6.3.7,0,.1.2.2.3.1v.2h-2v-.2c.2,0,.3,0,.4,0s0,0,0-.2,0-.1,0-.2c0,0,0-.1,0-.2l-.2-.4h-1.4c0,.2-.1.4-.2.5,0,.2,0,.3,0,.3s0,.1.2.2c0,0,.2,0,.3,0v.2h-1.2v-.2ZM24.3,4.3l-.6-1.4h0l-.5,1.4h1.2Z"/>
        </g>
      </g>
      <g>
        <text class="cls-2" transform="translate(-159.7 -66.5)"><tspan x="0" y="0">DO</tspan><tspan x="0" y="9">RA</tspan></text>
        <text class="cls-1" transform="translate(-159.7 -75.6)"><tspan x="0" y="0">DERDA</tspan></text>
      </g>
      <text class="cls-2" transform="translate(49.6 -21.7)"><tspan x="0" y="0">TOURS</tspan></text>
      <text class="cls-2" transform="translate(12.6 -58.2)"><tspan x="0" y="0">DORA</tspan></text>
    </g>
  </g>
</svg>