<?xml version="1.0" encoding="UTF-8"?>
<svg xmlns="http://www.w3.org/2000/svg" version="1.1" viewBox="0 0 46 6.1">
  <defs>
    <style>
      .cls-1 {
        fill: #fff;
      }

      .cls-2 {
        fill: #adadad;
      }
    </style>
  </defs>
  <!-- Generator: Adobe Illustrator 28.7.1, SVG Export Plug-In . SVG Version: 1.2.0 Build 142)  -->
  <g>
    <g id="katman_1">
      <g>
        <g>
          <polygon class="cls-1" points="21.4 4.8 21.4 3.3 19.9 3.3 19.9 4.8 19.1 4.8 19.1 1.3 19.9 1.3 19.9 2.7 21.4 2.7 21.4 1.3 22.2 1.3 22.2 4.8 21.4 4.8"/>
          <path class="cls-1" d="M3.8,1.3v2.2c0,.2,0,.5.1.6,0,.2.2.3.3.4.1.1.3.2.5.2.2,0,.4,0,.6,0s.4,0,.6,0c.2,0,.3-.1.5-.2.1-.1.2-.3.3-.4,0-.2.1-.4.1-.6V1.3h-.8v2.2c0,.2,0,.4-.2.5-.1.1-.3.2-.5.2s-.4,0-.5-.2c-.1-.1-.2-.3-.2-.5V1.3h-.8Z"/>
          <path class="cls-1" d="M1.5,4.8V1.9h-1v-.7h2.7v.3c0,.2-.2.3-.3.3h-.6v2.9h-.8Z"/>
          <rect class="cls-1" x="14.6" y="1.3" width=".8" height="3.5"/>
          <path class="cls-1" d="M11.9,3.2h0s1,1.4,1,1.4c.1.2.3.3.5.3h.6l-1.5-1.9h0s0,0,0,0l1.2-1.6h-.8l-1.1,1.5h0s0,0,0,0v-1.5h-.8v3.5h.8v-1.6h0Z"/>
          <path class="cls-1" d="M10,4.8c-.2,0-.5-.1-.6-.3l-.6-1h-.4v1.4h-.8V1.3h1.5c.4,0,.7,0,.9.3.2.2.3.5.3.8s0,.3-.1.5c0,.2-.2.3-.5.4h0s1,1.6,1,1.6h-.5ZM8.4,2.9h.5c.2,0,.3,0,.4-.1,0,0,.1-.2.1-.4s0-.3-.1-.4c0,0-.2-.1-.4-.1h-.5v1Z"/>
          <path class="cls-1" d="M16.1,4.7v-.7c.3.1.6.2.9.2s.6-.1.6-.4-.3-.3-.8-.6c-.4-.2-.7-.4-.7-1s.5-1,1.3-1,.7,0,.9.2v.7c-.2,0-.5-.2-.8-.2s-.5.1-.5.4.2.3.6.4c.5.2,1,.3,1,1.1s-.5,1.1-1.3,1.1-.8,0-1.1-.2Z"/>
        </g>
        <g>
          <path class="cls-2" d="M40.3,4.8V1.3h2.2v.3c0,.2-.2.3-.3.3h-1.1v.8h1.2v.6h-1.2v.9h1.4v.7h-2.2Z"/>
          <path class="cls-2" d="M32.2,4.8V1.3h.4c.2,0,.4.2.4.4v2.5h1.3v.6h-2.1Z"/>
          <rect class="cls-2" x="27.2" y="1.3" width=".8" height="3.5"/>
          <path class="cls-2" d="M31.2,4.8c-.2,0-.5-.1-.6-.3l-.6-1h-.4v1.4h-.8V1.3h1.5c.4,0,.7,0,.9.3.2.2.3.5.3.8s0,.3-.1.5c0,.2-.2.3-.5.4h0s1,1.6,1,1.6h-.5ZM29.5,2.9h.5c.2,0,.3,0,.4-.1,0,0,.1-.2.1-.4s0-.3-.1-.4c0,0-.2-.1-.4-.1h-.5v1Z"/>
          <path class="cls-2" d="M25.4,1.3h-.9l-1.3,3.5h.6c.1,0,.3,0,.3-.2v-.4h1.6l.2.7h.9l-1.3-3.5ZM24.4,3.5l.3-.9c0-.2.1-.4.2-.6h0c0,.2.1.4.2.6l.3.9h-1Z"/>
          <path class="cls-2" d="M43.1,4.7v-.7c.3.1.6.2.9.2s.6-.1.6-.4-.3-.3-.8-.6c-.4-.2-.7-.4-.7-1s.5-1,1.3-1,.7,0,.9.2v.7c-.2,0-.5-.2-.8-.2s-.5.1-.5.4.2.3.6.4c.5.2,1,.3,1,1.1s-.5,1.1-1.3,1.1-.8,0-1.1-.2Z"/>
          <path class="cls-2" d="M36.4,1.3h.5c.2,0,.5.1.6.3l1,1.6c.1.2.2.4.3.6h0c0-.2,0-.4,0-.5v-1.9h.7v3.5h-.9l-1.2-1.9c-.1-.2-.2-.4-.3-.5h0c0,.2,0,.3,0,.5v1.9h-.7V1.3Z"/>
          <rect class="cls-2" x="34.8" y="1.3" width=".8" height="3.5"/>
        </g>
      </g>
    </g>
  </g>
</svg>