<?xml version="1.0" encoding="UTF-8"?>
<svg xmlns="http://www.w3.org/2000/svg" version="1.1" viewBox="0 0 61 68">
  <defs>
    <style>
      .cls-1 {
        fill: #100c08;
      }

      .cls-2 {
        fill: #c90c0f;
      }
    </style>
  </defs>
  <!-- Generator: Adobe Illustrator 28.7.1, SVG Export Plug-In . SVG Version: 1.2.0 Build 142)  -->
  <g>
    <g id="katman_1">
      <g>
        <g>
          <path class="cls-1" d="M45.3,13c-.1.1-.2.3-.2.4,0,.2.4.7.6.7s.2.3-.1.4c-.2,0-.3.2-.3.4s0,.3.2.3c.6,0,1-.5,1-1.3s-.2-1-.7-1-.4,0-.5.2Z"/>
          <path class="cls-1" d="M14.5,13c0,0,0,.3,0,.5v.4s.7,0,.7,0h.7v4.1h.6s.6,0,.6,0v-2s0-2,0-2h1.3v-1h-1.9c-1.6,0-1.9,0-2,.1Z"/>
          <path class="cls-1" d="M32.3,15.4v2.6h1.1v-5.1h-1.1v2.6Z"/>
          <path class="cls-1" d="M34,15.4v2.6h1v-5.1h-1v2.6Z"/>
          <path class="cls-1" d="M21.4,14.5c-1,.5-1.3,1.9-.6,2.9.4.7,1.5.9,2.2.5.4-.2.4-.2.4,0s.1.1.5.1h.5v-3.7h-.5c-.3,0-.5,0-.5.1,0,0-.1,0-.3,0-.4-.2-1.1-.2-1.6,0ZM22.9,15.4c.3.2.4.6.3,1-.1.4-.4.6-.9.6s-.9-.4-.9-.9c0-.7.9-1.2,1.5-.7Z"/>
          <path class="cls-1" d="M29.3,14.4c-.7.3-1.1,1-1.1,1.7s.8,1.9,1.9,1.9,1.1-.2,1.4-.5c0-.1.2-.3.3-.5v-.3c.1,0-.4,0-.4,0-.4,0-.6,0-.7.2-.4.5-1.4.2-1.4-.4s.1-.2,1.3-.2h1.3v-.3c0-.4-.2-.9-.4-1.2-.4-.6-1.5-.8-2.3-.4ZM30.7,15.3c.1.1.2.3.2.3,0,0-.4,0-.8,0h-.8s.3-.3.3-.3c.3-.3.8-.3,1.2,0Z"/>
          <path class="cls-1" d="M36.4,14.5c-.6.4-.9.9-.9,1.6,0,1.3,1,2.1,2.4,1.9.5-.1,1.3-.9,1.3-1.3s-.2,0-.5,0c-.4,0-.5,0-.7.2-.3.3-.9.3-1.2,0-.5-.5-.4-.5,1.1-.5h1.3v-.4c0-.5-.3-1.1-.6-1.3-.5-.5-1.5-.6-2.2-.1ZM37.8,15.2c.2.1.3.3.3.4s-.3,0-.7,0-.7,0-.7,0c0-.2.5-.5.7-.5s.3,0,.4.1Z"/>
          <path class="cls-1" d="M42.7,14.4c-.2.1-.4.3-.5.5-.1.3-.2.4,0,.7.1.4.4.6,1.1.8.5.1.6.3.6.5,0,.2-.5.2-.6,0,0-.1-.2-.2-.6-.2s-.5,0-.5.2c0,.6.7,1.1,1.4,1.1s1.4-.5,1.4-1.3-.3-.8-1-1.1c-.5-.2-.6-.2-.6-.4,0-.3.3-.3.5,0,.1.1.3.2.6.2s.4,0,.4-.2c0-.8-1.2-1.3-2.1-.9Z"/>
          <path class="cls-1" d="M18.1,16.2v1.8h1.1v-1.2c0-1.4,0-1.4.7-1.4h.4v-1h-.4c-.2,0-.4,0-.6.2l-.2.2v-.2c0-.2,0-.2-.5-.2h-.5v1.8Z"/>
          <path class="cls-1" d="M24.7,14.5c0,0,.3.9.6,1.8l.6,1.6h.6s.6,0,.6,0l.6-1.8.6-1.8h-1.2l-.3,1.1c-.2.6-.3,1.1-.4,1,0,0-.2-.6-.3-1.1l-.3-1h-.6c-.5,0-.6,0-.5.1Z"/>
          <path class="cls-1" d="M39.6,16.2v1.8h1v-1.1c0-1.3,0-1.5.7-1.5h.4v-1h-.4c-.3,0-.4,0-.6.2-.2.2-.3.2-.2,0,0-.1,0-.2-.5-.2h-.5s0,1.8,0,1.8Z"/>
          <path class="cls-1" d="M32.9,19.2c-.8.4-.2,1.6.6,1.2.5-.2.5-1,0-1.2-.3-.1-.3-.1-.6,0Z"/>
          <path class="cls-1" d="M21,19.4c-.8.2-1.5.9-1.7,1.7-.3,1,0,2.4.8,3,1,.8,2.6.7,3.4,0,.3-.3.7-1,.7-1.2,0,0-.2-.1-.6-.1s-.6,0-.7.3c-.3.6-1.2.8-1.8.5-1.2-.7-1-2.7.3-3,.7-.2,1.4.2,1.6.8,0,.1.2.2.6.2.7,0,.7,0,.3-.8-.3-.6-.7-.9-1.3-1.1-.4-.1-1.2-.2-1.6,0Z"/>
          <path class="cls-1" d="M24.6,19.5s0,1.2,0,2.6v2.5h1.1v-1.2c0-1.1,0-1.2.2-1.4.3-.3.5-.3.8,0,.2.2.2.3.3,1.4v1.2h1v-1.4c0-1.2,0-1.5-.2-1.7-.4-.6-1.2-.8-1.8-.4l-.3.2v-1.9h-.5c-.3,0-.5,0-.6,0Z"/>
          <path class="cls-1" d="M41.4,19.8s0,0,.1,0,.1.1.1.3,0,.3,0,.3,0-.1,0-.3,0-.3,0-.3,0,0,0,0-.1,0-.3,0-.3,0-.3,0Z"/>
          <path class="cls-1" d="M42.2,20.1c0,.4.1.6.2.3,0-.1,0-.1,0,0,0,0,0,.2.1.2s.1,0,.2-.2q0-.1.1,0c0,0,0,.2,0,.2s0-.2,0-.4c0-.5-.2-.6-.3-.2v.3c0,0-.2-.3-.2-.3-.2-.4-.3-.3-.3.2Z"/>
          <path class="cls-1" d="M29.7,20.9c-1.3.4-1.7,2.3-.7,3.2.8.7,2.3.6,2.9-.1.8-.9.5-2.4-.5-3-.4-.2-1.3-.3-1.7-.1ZM30.9,22c.3.2.4.7.3,1.1-.2.4-.4.6-.8.6-.7,0-1.1-.6-.8-1.3,0-.2.2-.4.3-.4.3-.1.8-.1,1,0Z"/>
          <path class="cls-1" d="M35.4,20.9c-.5.2-.8.4-1,.9-.7,1.4.2,2.8,1.7,2.8.6,0,1-.1,1.3-.4.2-.2.6-.8.6-1s-.2,0-.6,0c-.5,0-.6,0-.7.2-.2.3-.6.3-1,.2-.3-.1-.5-.4-.5-.9,0-.8.9-1.2,1.4-.6.2.2.3.2.7.2s.6,0,.4-.4c-.3-.8-1.5-1.3-2.5-.9Z"/>
          <path class="cls-1" d="M39.2,21c-1.3.6-1.5,2.6-.3,3.4.5.4,1.4.4,2,.1.4-.2.9-.8.9-1.1s-1-.1-1.1,0c0,.2-.6.4-.9.4-.2,0-.7-.4-.7-.6s.5-.1,1.3-.1h1.3s0-.5,0-.5c0-.5-.3-1-.5-1.3-.5-.4-1.4-.6-2-.3ZM40.4,21.8c.2.1.3.3.3.4s-.3,0-.7,0-.7,0-.7,0c0-.2.5-.5.7-.5s.3,0,.4.1Z"/>
          <path class="cls-1" d="M32.7,22.7v1.8h1v-3.7h-1v1.8Z"/>
        </g>
        <path class="cls-2" d="M44.2,39c1.3,7.6-3.8,14.8-11.4,16.1-1.3.2-2.5.2-3.8.1-4-.4-7.5-2.5-9.8-5.7l22.6-6.5c.3,0,.2-.4,0-.4l-9.5.7c1.3-1.3,2.3-2.9,2.2-5-.2-3.5-3.8-7-10.5-9.3,1.3-.7,2.7-1.2,4.2-1.4,1.3-.2,2.5-.2,3.8-.1,6.1.6,11.2,5.2,12.3,11.6ZM16.7,43.6c.3,1.9,1,3.6,2,5.1,3.6-1,6.8-2.9,7.9-7.1,1.2-4.7-.2-9.5-3.6-12.1-4.6,2.9-7.3,8.4-6.3,14.1Z"/>
      </g>
      <rect class="cls-2" x="-17.3" width="4.9" height="68"/>
    </g>
  </g>
</svg>