<?xml version="1.0" encoding="UTF-8"?>
<svg xmlns="http://www.w3.org/2000/svg" version="1.1" viewBox="0 0 46 45">
  <defs>
    <style>
      .cls-1 {
        fill: #fff;
      }

      .cls-2 {
        fill: #c90c0f;
      }
    </style>
  </defs>
  <!-- Generator: Adobe Illustrator 28.7.1, SVG Export Plug-In . SVG Version: 1.2.0 Build 142)  -->
  <g>
    <g id="katman_1">
      <g>
        <path class="cls-1" d="M25.1.1c11.3,1.2,20.1,10.7,20.1,22.4,0,12.4-10.1,22.5-22.5,22.5-12.4,0-22.5-10.1-22.5-22.5C.3,10.1,10.3,0,22.8,0c.8,0,1.6,0,2.4.1ZM26.3,43.4c11.6-1.9,19.4-12.9,17.4-24.4-1.6-9.6-9.5-16.6-18.7-17.6-1.9-.2-3.8-.1-5.7.2-2.3.4-4.5,1.1-6.4,2.2,10.2,3.5,15.7,8.7,16,14.1.2,3.3-1.4,5.7-3.4,7.7l14.4-1c.4,0,.5.4,0,.6L5.6,35c3.5,4.8,8.9,8,15,8.7,1.9.2,3.8.1,5.7-.2ZM16.8,23c1.9-7.1-.3-14.5-5.4-18.4C4.4,9,.4,17.3,1.8,26c.5,2.9,1.5,5.5,3,7.8,5.5-1.5,10.3-4.4,12-10.8Z"/>
        <path class="cls-2" d="M43.7,19c1.9,11.6-5.9,22.5-17.4,24.4-1.9.3-3.9.4-5.7.2-6-.6-11.5-3.8-15-8.7l34.4-9.9c.5-.1.4-.6,0-.6l-14.4,1c2-2,3.6-4.4,3.4-7.7-.4-5.4-5.9-10.6-16-14.1,2-1,4.1-1.8,6.4-2.2,1.9-.3,3.9-.4,5.7-.2,9.2,1,17.1,8,18.7,17.6ZM1.8,26c.5,2.9,1.5,5.5,3,7.8,5.5-1.5,10.3-4.4,12-10.8,1.9-7.1-.3-14.5-5.4-18.4C4.4,9,.4,17.3,1.8,26Z"/>
      </g>
    </g>
  </g>
</svg>